<svg id="Layer_1" data-name="Layer 1" xmlns="http://www.w3.org/2000/svg" viewBox="0 0 244.47 61.43">
  <defs>
    <style>
      .cls-1 {
        fill: #ffffff;
      }

      .cls-2, .cls-3, .cls-4, .cls-5, .cls-6, .cls-7 {
        fill: none;
        stroke: #ffffff;
      }

      .cls-2 {
        stroke-width: 1.43px;
      }

      .cls-3 {
        stroke-width: 1.43px;
      }

      .cls-4 {
        stroke-width: 1.42px;
      }

      .cls-5 {
        stroke-width: 1.19px;
      }

      .cls-6 {
        stroke-width: 1.08px;
      }

      .cls-7 {
        stroke-width: 0.75px;
      }
    </style>
  </defs>
  <title>bold_cornell_logo</title>
  <g>
    <path class="cls-1" d="M91.32,40.55a10.55,10.55,0,0,1-4.69,1.16c-5.16,0-8.64-2.95-8.64-7.82a7.18,7.18,0,0,1,2.62-5.78A9.7,9.7,0,0,1,86.83,26a15.85,15.85,0,0,1,5,.88,16,16,0,0,0-.41,3.27H90.72V28.65c0-.6-0.86-1-1.85-1.33a8,8,0,0,0-2.41-.37c-4,0-6.17,2.94-6.17,6.6,0,4.26,2.82,7,7.07,7a8.17,8.17,0,0,0,4.36-1.29l0.19,0.21Z" transform="translate(-2.36 -2.92)"/>
    <path class="cls-1" d="M92.69,36.68a5.12,5.12,0,0,1,5.48-5.48,4.83,4.83,0,0,1,4.88,4.9,5.4,5.4,0,0,1-5.63,5.61C94.71,41.8,92.69,39.65,92.69,36.68Zm2-.92c0,2.26.82,5.24,3.57,5.24,2,0,2.79-2,2.79-4,0-2.77-1.31-5.14-3.37-5.14C95.4,31.91,94.69,33.76,94.69,35.76Z" transform="translate(-2.36 -2.92)"/>
    <path class="cls-1" d="M105.22,34.26a3.39,3.39,0,0,0-.15-1.33,0.9,0.9,0,0,0-.8-0.24h-0.8v-0.6a12.19,12.19,0,0,0,3.35-.88L107,31.29v2.17h0l1.16-1.37A2.42,2.42,0,0,1,110,31.2a2,2,0,0,1,1,.24L110.83,34h-0.45a1.56,1.56,0,0,0-1.46-1A2.19,2.19,0,0,0,107,35.4v3.7a4.37,4.37,0,0,0,.11,1.25,1,1,0,0,0,.9.3l1.12,0.06v0.64c-1.12,0-2-.06-3-0.06s-1.91,0-2.69.06V40.7l1-.06a0.73,0.73,0,0,0,.69-0.3,4.38,4.38,0,0,0,.11-1.25V34.26Z" transform="translate(-2.36 -2.92)"/>
    <path class="cls-1" d="M115.28,39.09a4.38,4.38,0,0,0,.11,1.25,0.73,0.73,0,0,0,.69.3l1,0.06v0.64c-0.75,0-1.61-.06-2.67-0.06s-1.91,0-2.66.06V40.7l1-.06a0.73,0.73,0,0,0,.69-0.3,4.4,4.4,0,0,0,.11-1.25V34.26a3.39,3.39,0,0,0-.15-1.33,0.9,0.9,0,0,0-.8-0.24h-0.79v-0.6a12.19,12.19,0,0,0,3.35-.88l0.19,0.09v1.83h0l1.59-1.38a2.27,2.27,0,0,1,1.74-.54c2.51,0,3.55,1.4,3.55,3.74v4.15a4.38,4.38,0,0,0,.11,1.25,0.73,0.73,0,0,0,.69.3l0.88,0.06v0.64c-0.54,0-1.16-.06-1.76-0.06s-1.23,0-1.72.06v-6.1c0-1.78-1-2.73-2.47-2.73-1.31,0-2.64,1.14-2.64,2v4.56Z" transform="translate(-2.36 -2.92)"/>
    <path class="cls-1" d="M133.4,35.14a6.36,6.36,0,0,1,0,.9,23.72,23.72,0,0,1-3.89.3h-3.14c0,2.51,1.25,4.23,3.89,4.23a5.13,5.13,0,0,0,2.66-1l0.28,0.21-0.43.73a6.31,6.31,0,0,1-3.44,1.2,4.59,4.59,0,0,1-5-5c0-2.08.56-3.33,1.55-4.1a6.72,6.72,0,0,1,1.33-.86,4.94,4.94,0,0,1,2.11-.58A3.81,3.81,0,0,1,133.4,35.14Zm-7,.34a31.57,31.57,0,0,0,5.12.06c0-2-.73-3.63-2.28-3.63S126.27,33.14,126.37,35.48Z" transform="translate(-2.36 -2.92)"/>
    <path class="cls-1" d="M135.55,28c0-.49-0.06-0.88-0.54-0.88h-1.2v-0.6a14.9,14.9,0,0,0,3.35-.8l0.19,0.17V39.09a4.38,4.38,0,0,0,.11,1.25,0.73,0.73,0,0,0,.69.3l1,0.06v0.64c-0.77,0-1.63-.06-2.69-0.06s-1.91,0-2.69.06V40.7l1-.06a0.73,0.73,0,0,0,.69-0.3,4.37,4.37,0,0,0,.11-1.25V28Z" transform="translate(-2.36 -2.92)"/>
    <path class="cls-1" d="M141.91,28c0-.49-0.06-0.88-0.54-0.88h-1.2v-0.6a14.9,14.9,0,0,0,3.35-.8l0.19,0.17V39.09a4.36,4.36,0,0,0,.11,1.25,0.73,0.73,0,0,0,.69.3l1,0.06v0.64c-0.77,0-1.63-.06-2.69-0.06s-1.91,0-2.69.06V40.7l1-.06a0.73,0.73,0,0,0,.69-0.3,4.36,4.36,0,0,0,.11-1.25V28Z" transform="translate(-2.36 -2.92)"/>
    <path class="cls-1" d="M152.19,29.05a3.81,3.81,0,0,0-.19-1.61,1,1,0,0,0-.9-0.32l-1-.06V26.41c1.12,0,2.13.06,3.18,0.06s2,0,3.12-.06v0.64l-1,.06a1,1,0,0,0-.9.32,3.81,3.81,0,0,0-.19,1.61v7.39c0,3.05,1.59,3.93,4.43,3.93,2.32,0,4.43-.88,4.43-4.45V29.05a3.79,3.79,0,0,0-.19-1.61,1,1,0,0,0-.9-0.32L161,27.06V26.41c0.86,0,1.72.06,2.49,0.06s1.63,0,2.58-.06v0.64l-0.95.06a1,1,0,0,0-.9.32,3.79,3.79,0,0,0-.19,1.61v6.21c0,4.6-1.74,6.45-6.08,6.45-3.65,0-5.8-1.1-5.8-5V29.05Z" transform="translate(-2.36 -2.92)"/>
    <path class="cls-1" d="M168.93,39.09a4.36,4.36,0,0,0,.11,1.25,0.73,0.73,0,0,0,.69.3l1,0.06v0.64c-0.75,0-1.61-.06-2.66-0.06s-1.91,0-2.67.06V40.7l1-.06a0.73,0.73,0,0,0,.69-0.3,4.38,4.38,0,0,0,.11-1.25V34.26a3.39,3.39,0,0,0-.15-1.33,0.9,0.9,0,0,0-.8-0.24h-0.8v-0.6a12.18,12.18,0,0,0,3.35-.88l0.19,0.09v1.83h0l1.59-1.38a2.27,2.27,0,0,1,1.74-.54c2.51,0,3.55,1.4,3.55,3.74v4.15a4.38,4.38,0,0,0,.11,1.25,0.73,0.73,0,0,0,.69.3l0.88,0.06v0.64c-0.54,0-1.16-.06-1.76-0.06s-1.23,0-1.72.06v-6.1c0-1.78-1-2.73-2.47-2.73-1.31,0-2.64,1.14-2.64,2v4.56Z" transform="translate(-2.36 -2.92)"/>
    <path class="cls-1" d="M182.21,39.09a4.36,4.36,0,0,0,.11,1.25,0.73,0.73,0,0,0,.69.3l1,0.06v0.64c-0.77,0-1.63-.06-2.69-0.06s-1.91,0-2.69.06V40.7l1-.06a0.73,0.73,0,0,0,.69-0.3,4.37,4.37,0,0,0,.11-1.25V34.26a3.39,3.39,0,0,0-.15-1.33,0.9,0.9,0,0,0-.79-0.24h-0.8v-0.6A12.18,12.18,0,0,0,182,31.2l0.19,0.09v7.8Zm0.19-11.37a1.24,1.24,0,0,1-1.2,1.18A1.22,1.22,0,0,1,180,27.72a1.24,1.24,0,0,1,1.18-1.2A1.26,1.26,0,0,1,182.4,27.72Z" transform="translate(-2.36 -2.92)"/>
    <path class="cls-1" d="M190.74,39.09c-0.37.8-.58,1.61-0.88,2.34h-1.07l-3.7-8.66a0.87,0.87,0,0,0-.67-0.71l-0.73,0v-0.6c0.84,0,1.68.06,2.51,0.06s1.66,0,2.49-.06V32l-1.05,0c-0.56,0-.71.32-0.34,1.22l2.56,6.19c0.45-1,.92-2,1.33-3l0.9-2.28c0.58-1.48.54-2.11-.11-2.13l-0.88,0v-0.6c0.67,0,1.35.06,2,.06s1.35,0,2-.06V32l-0.67,0c-0.54,0-.9.79-1.2,1.44Z" transform="translate(-2.36 -2.92)"/>
    <path class="cls-1" d="M204,35.14a6.28,6.28,0,0,1,0,.9,23.72,23.72,0,0,1-3.89.3H197c0,2.51,1.25,4.23,3.89,4.23a5.13,5.13,0,0,0,2.66-1l0.28,0.21-0.43.73a6.32,6.32,0,0,1-3.44,1.2,4.59,4.59,0,0,1-5-5c0-2.08.56-3.33,1.55-4.1a6.72,6.72,0,0,1,1.33-.86A4.94,4.94,0,0,1,200,31.2,3.81,3.81,0,0,1,204,35.14Zm-7,.34a31.56,31.56,0,0,0,5.12.06c0-2-.73-3.63-2.28-3.63S196.91,33.14,197,35.48Z" transform="translate(-2.36 -2.92)"/>
    <path class="cls-1" d="M206.95,34.26a3.39,3.39,0,0,0-.15-1.33,0.9,0.9,0,0,0-.79-0.24h-0.8v-0.6a12.18,12.18,0,0,0,3.35-.88l0.19,0.09v2.17h0L210,32.09a2.42,2.42,0,0,1,1.8-.88,2,2,0,0,1,1,.24L212.56,34h-0.45a1.56,1.56,0,0,0-1.46-1,2.19,2.19,0,0,0-1.89,2.36v3.7a4.36,4.36,0,0,0,.11,1.25,1,1,0,0,0,.9.3l1.12,0.06v0.64c-1.12,0-2-.06-3-0.06s-1.91,0-2.69.06V40.7l1-.06a0.73,0.73,0,0,0,.69-0.3,4.38,4.38,0,0,0,.11-1.25V34.26Z" transform="translate(-2.36 -2.92)"/>
    <path class="cls-1" d="M214.3,38.21v0.88c0,1.33,1.53,1.83,2.77,1.83s2.52-.79,2.52-2a1.38,1.38,0,0,0-1-1.42,29.13,29.13,0,0,1-3.16-.86,2.39,2.39,0,0,1-1.83-2.34c0-2.32,2-3.14,4-3.14a8.17,8.17,0,0,1,2.77.54c-0.07.77-.09,1.57-0.11,2.43h-0.6V33.67c0-1.12-1.27-1.76-2.49-1.76-1.83,0-2.11,1-2.11,1.74,0,0.92.71,1.42,2.34,1.7,2.56,0.43,3.76,1.07,3.76,2.75,0,2.37-2.36,3.61-4.75,3.61a8.79,8.79,0,0,1-3-.52,13.7,13.7,0,0,0,.24-3h0.65Z" transform="translate(-2.36 -2.92)"/>
    <path class="cls-1" d="M225.93,39.09a4.38,4.38,0,0,0,.11,1.25,0.73,0.73,0,0,0,.69.3l1,0.06v0.64c-0.77,0-1.63-.06-2.69-0.06s-1.91,0-2.69.06V40.7l1-.06a0.73,0.73,0,0,0,.69-0.3,4.42,4.42,0,0,0,.11-1.25V34.26a3.37,3.37,0,0,0-.15-1.33,0.9,0.9,0,0,0-.79-0.24h-0.8v-0.6a12.19,12.19,0,0,0,3.35-.88l0.19,0.09v7.8Zm0.19-11.37a1.24,1.24,0,0,1-1.2,1.18,1.22,1.22,0,0,1-1.18-1.18,1.24,1.24,0,0,1,1.18-1.2A1.26,1.26,0,0,1,226.12,27.72Z" transform="translate(-2.36 -2.92)"/>
    <path class="cls-1" d="M228.18,33.16V32.71l1.68-.75v-1.5a15.24,15.24,0,0,0-.09-1.7,7.9,7.9,0,0,0,1.83-.82l0.26,0.24a25,25,0,0,0-.24,3.05V32l2.94-.13-0.19,1.16h-2.75V38.7c0,1,.28,1.48,1.18,1.48a2.46,2.46,0,0,0,1.27-.41l0.28,0.37-1,1.14a2.62,2.62,0,0,1-1.4.26c-1.14,0-2.11-.54-2.11-2.28V33.07Z" transform="translate(-2.36 -2.92)"/>
    <path class="cls-1" d="M244.09,33.16c0.32-.8,0-1-0.77-1.1l-0.56,0v-0.6c0.69,0,1.35.06,2,.06s1.36,0,2-.06V32l-0.6,0c-0.52,0-1,.71-1.81,2.6l-4.36,10.06c-0.69,1.57-1.46,2.64-3.27,2.64a2.34,2.34,0,0,1-1.08-.32l0.52-1.61h0.28a1.82,1.82,0,0,0,1.1.49c1.25-.09,1.93-1.83,2.34-2.82l0.49-1.31c-0.36-1-.8-2.06-1.2-3.05l-2.34-5.63a1.28,1.28,0,0,0-1.12-1.05l-0.39,0v-0.6c0.84,0,1.66.06,2.49,0.06s1.65,0,2.49-.06V32l-0.82,0c-0.6,0-1,.24-0.52,1.4l1.38,3.61a14.77,14.77,0,0,0,1.1,2.36Z" transform="translate(-2.36 -2.92)"/>
  </g>
  <circle class="cls-2" cx="30.72" cy="30.72" r="30"/>
  <circle class="cls-3" cx="30.72" cy="30.72" r="22.36"/>
  <path class="cls-2" d="M47,38.14c0-3.17,0-19.33,0-19.33H19.13s0,15.81,0,19c0,10.62,14,16.61,14,16.61S47,48.31,47,38.14Z" transform="translate(-2.36 -2.92)"/>
  <path class="cls-2" d="M26.62,28.81s-1.53-.9-2.53-1.57a1.71,1.71,0,0,1-1-1.31c0-.13,0-5,0-5h7.15s0,4.85,0,5a1.53,1.53,0,0,1-.95,1.31C28.27,27.91,26.62,28.81,26.62,28.81Z" transform="translate(-2.36 -2.92)"/>
  <path class="cls-2" d="M39.89,28.77s-1.53-.9-2.53-1.57a1.72,1.72,0,0,1-1-1.31c0-.13,0-5,0-5h7.15s0,4.85,0,5a1.53,1.53,0,0,1-.95,1.31C41.54,27.88,39.89,28.77,39.89,28.77Z" transform="translate(-2.36 -2.92)"/>
  <line class="cls-4" x1="16.15" y1="27.92" x2="44.85" y2="27.92"/>
  <path class="cls-2" d="M32.91,34.64a1.38,1.38,0,0,1,1-.59A5.62,5.62,0,0,1,35.47,34c1.22,0.11,2.21.25,3,.27,1.08,0,1.79,0,2.31,0V46.34s-0.8,0-1.82,0c-2.08,0-2.87-.27-4.51-0.26-1,0-1.06.79-1.43,0.79s-0.41-.78-1.37-0.79c-1.64,0-2.42.21-4.51,0.26-1,0-1.82,0-1.82,0V34.28c0.52,0,1.23,0,2.31,0,0.81,0,1.79-.16,3-0.27a5.62,5.62,0,0,1,1.59.06,1.59,1.59,0,0,1,1,.62" transform="translate(-2.36 -2.92)"/>
  <line class="cls-5" x1="20.71" y1="20.71" x2="27.8" y2="20.71"/>
  <line class="cls-2" x1="20.71" y1="20.71" x2="27.8" y2="20.71"/>
  <line class="cls-5" x1="30.66" y1="27.47" x2="30.66" y2="51.6"/>
  <line class="cls-6" x1="30.66" y1="27.47" x2="30.66" y2="51.6"/>
  <polyline class="cls-5" points="40.9 22.21 37.4 19.88 34.17 22.21"/>
  <polyline class="cls-2" points="41 22.21 37.5 19.88 34.27 22.21"/>
  <path class="cls-7" d="M35,36.57h0.37c0.64,0.06,1.16.13,1.58,0.14l1.81,0" transform="translate(-2.36 -2.92)"/>
  <path class="cls-7" d="M35,38.87h0.37C36,38.94,36.51,39,36.93,39l1.81,0" transform="translate(-2.36 -2.92)"/>
  <path class="cls-7" d="M35,41.18h0.37c0.64,0.06,1.16.13,1.58,0.14l1.81,0" transform="translate(-2.36 -2.92)"/>
  <path class="cls-7" d="M35,43.48h0.37c0.64,0.06,1.16.13,1.58,0.14l1.81,0" transform="translate(-2.36 -2.92)"/>
  <path class="cls-7" d="M31.1,36.55l-0.34,0c-0.64.06-1.16,0.13-1.58,0.14l-1.81,0" transform="translate(-2.36 -2.92)"/>
  <path class="cls-7" d="M31.1,38.86H30.76C30.12,38.93,29.6,39,29.18,39l-1.81,0" transform="translate(-2.36 -2.92)"/>
  <path class="cls-7" d="M31.1,41.16H30.76c-0.64.06-1.16,0.13-1.58,0.14l-1.81,0" transform="translate(-2.36 -2.92)"/>
  <path class="cls-7" d="M31.1,43.46H30.76c-0.64.06-1.16,0.13-1.58,0.14l-1.81,0" transform="translate(-2.36 -2.92)"/>
  <g>
    <rect class="cls-1" x="20.86" y="32.57" width="1.56" height="1.72"/>
    <rect class="cls-1" x="20.86" y="36.53" width="1.65" height="1.72"/>
    <rect class="cls-1" x="20.86" y="40.08" width="1.56" height="1.71"/>
    <rect class="cls-1" x="38.84" y="32.91" width="1.56" height="1.71"/>
    <rect class="cls-1" x="38.84" y="36.87" width="1.65" height="1.72"/>
    <rect class="cls-1" x="38.84" y="40.42" width="1.56" height="1.71"/>
    <g>
      <path class="cls-1" d="M9,30.69a4.07,4.07,0,0,1,.07.94,2,2,0,0,1-2.21,2.1,2,2,0,0,1-2.07-2.37A2.71,2.71,0,0,1,5,30.45l0.7,0.1a1.65,1.65,0,0,0-.27.87,1.37,1.37,0,0,0,1.41,1.46,1.35,1.35,0,0,0,1.56-1.29,2.24,2.24,0,0,0-.12-0.9H9Z" transform="translate(-2.36 -2.92)"/>
      <path class="cls-1" d="M5.74,26.18a1.92,1.92,0,0,1,2.59-1.34,2,2,0,1,1-1.09,3.85A1.91,1.91,0,0,1,5.74,26.18Zm3.49,1A1.27,1.27,0,0,0,8.1,25.66a1.18,1.18,0,1,0-.63,2.2A1.27,1.27,0,0,0,9.23,27.17Z" transform="translate(-2.36 -2.92)"/>
      <path class="cls-1" d="M7.38,21.9l0.42-.78c0.41-.77.88-1.71,1.89-1.17a0.94,0.94,0,0,1,.45,1.19h0A0.61,0.61,0,0,1,10.73,21l1.73,0.18L12,22l-1.37-.17a0.51,0.51,0,0,0-.64.3l-0.12.23,1.52,0.81L11,23.85ZM9.32,22l0.13-.24c0.19-.36.35-0.79-0.1-1s-0.69.15-.88,0.51l-0.13.24Z" transform="translate(-2.36 -2.92)"/>
      <path class="cls-1" d="M10.18,17.18l0.64-.77,3.37,0.78h0l-2.38-2,0.5-.6,3.19,2.64L14.87,18l-3.38-.77h0l2.38,2-0.5.6Z" transform="translate(-2.36 -2.92)"/>
      <path class="cls-1" d="M14.32,12.68l1.87-1.52,0.41,0.51-1.23,1L16,13.46l1.13-.92L17.55,13,16.42,14l0.73,0.9,1.24-1,0.41,0.51-1.88,1.53Z" transform="translate(-2.36 -2.92)"/>
      <path class="cls-1" d="M18.38,9.7l0.71-.4,1.71,3,1.38-.78,0.32,0.57L20.41,13.3Z" transform="translate(-2.36 -2.92)"/>
      <path class="cls-1" d="M22.58,7.59l0.77-.28,1.18,3.28L26,10l0.22,0.61L24,11.48Z" transform="translate(-2.36 -2.92)"/>
      <path class="cls-1" d="M29.18,5.79L30,5.72l0.2,2.38c0.06,0.7.32,1.15,0.94,1.09s0.8-.53.75-1.23l-0.2-2.38,0.82-.07,0.22,2.64a1.43,1.43,0,0,1-1.53,1.7A1.43,1.43,0,0,1,29.4,8.43Z" transform="translate(-2.36 -2.92)"/>
      <path class="cls-1" d="M35.31,5.58l1,0.14L37.43,9h0l0.41-3.07L38.63,6l-0.55,4.1-1-.13L36,6.72h0L35.53,9.79l-0.78-.1Z" transform="translate(-2.36 -2.92)"/>
      <path class="cls-1" d="M41.17,6.71L42,7,40.71,10.9l-0.78-.25Z" transform="translate(-2.36 -2.92)"/>
      <path class="cls-1" d="M44.08,7.69l0.78,0.4-0.53,3.37h0L46.73,9l0.72,0.37-3.09,3.07L43.47,12Z" transform="translate(-2.36 -2.92)"/>
      <path class="cls-1" d="M49.45,10.74l1.9,1.49-0.4.51-1.25-1-0.63.8,1.15,0.9-0.4.51-1.15-.9L47.94,14l1.26,1-0.4.51L46.9,14Z" transform="translate(-2.36 -2.92)"/>
      <path class="cls-1" d="M53.25,14l0.58,0.66c0.58,0.66,1.29,1.43.43,2.19a1,1,0,0,1-1.28,0h0a0.6,0.6,0,0,1,0,.61L52.16,19l-0.6-.69,0.65-1.22a0.51,0.51,0,0,0-.05-0.71L52,16.22l-1.29,1.13-0.54-.61Zm-0.79,1.78L52.64,16c0.27,0.3.62,0.61,1,.27s0.1-.7-0.17-1l-0.18-.2Z" transform="translate(-2.36 -2.92)"/>
      <path class="cls-1" d="M57.12,20.57a2.11,2.11,0,0,0-.27-0.81A0.57,0.57,0,0,0,56,19.51c-0.62.37,0.55,1.75-.64,2.46a1.29,1.29,0,0,1-1.86-.68,3.57,3.57,0,0,1-.4-1L53.81,20a2,2,0,0,0,.25.92,0.65,0.65,0,0,0,.83.35c0.68-.4-0.51-1.77.67-2.47a1.25,1.25,0,0,1,1.81.59,3.05,3.05,0,0,1,.37.91Z" transform="translate(-2.36 -2.92)"/>
      <path class="cls-1" d="M58.93,22.63l0.31,0.76L55.41,25,55.1,24.2Z" transform="translate(-2.36 -2.92)"/>
      <path class="cls-1" d="M59.64,26.73l-0.28-1.14L60,25.44l0.75,3.07-0.63.16-0.28-1.14-3.38.83-0.2-.8Z" transform="translate(-2.36 -2.92)"/>
      <path class="cls-1" d="M58.65,32.06l2.41-1.63,0.05,1-1.68,1.06,1.79,0.89,0,0.87L58.7,32.88,57.06,33l0-.82Z" transform="translate(-2.36 -2.92)"/>
      <path class="cls-1" d="M9.61,39.21l0.63,2.2-0.63.18L9.21,40.19l-1,.28,0.39,1.34L8,42,7.61,40.65l-1.74.5-0.23-.79Z" transform="translate(-2.36 -2.92)"/>
      <path class="cls-1" d="M11.55,44.28a1.93,1.93,0,0,1-1,2.75,1.94,1.94,0,0,1-2.82-.87,1.93,1.93,0,0,1,1-2.76A1.92,1.92,0,0,1,11.55,44.28ZM8.3,45.88a1.27,1.27,0,0,0,1.86.38,1.19,1.19,0,1,0-1-2.08A1.27,1.27,0,0,0,8.3,45.88Z" transform="translate(-2.36 -2.92)"/>
      <path class="cls-1" d="M13.31,47.54l0.52,0.65L12,49.67c-0.55.44-.78,0.9-0.38,1.4S12.47,51.45,13,51l1.87-1.49,0.52,0.65-2.07,1.64a1.44,1.44,0,0,1-2.27-.34,1.44,1.44,0,0,1,.18-2.3Z" transform="translate(-2.36 -2.92)"/>
      <path class="cls-1" d="M16.7,51.5l0.79,0.64-0.74,3.39h0l2-2.39,0.61,0.5-2.62,3.2-0.78-.64,0.74-3.4h0l-2,2.39-0.61-.5Z" transform="translate(-2.36 -2.92)"/>
      <path class="cls-1" d="M20.9,54.66l1,0.51c1.13,0.57,1.94,1.45,1.2,2.92s-1.93,1.35-3.06.78l-1-.5Zm-0.83,3.49,0.41,0.21a1.42,1.42,0,0,0,1.27-2.53l-0.41-.21Z" transform="translate(-2.36 -2.92)"/>
      <path class="cls-1" d="M25.69,56.79L28,57.42,27.87,58l-1.55-.41-0.26,1L27.48,59l-0.17.63-1.42-.38-0.3,1.12,1.56,0.42L27,61.42l-2.36-.63Z" transform="translate(-2.36 -2.92)"/>
      <path class="cls-1" d="M29.86,57.74L31,57.81c1.26,0.07,2.35.56,2.26,2.2S32,62,30.75,61.94l-1.13-.06Zm0.63,3.53,0.46,0a1.42,1.42,0,0,0,.16-2.83l-0.46,0Z" transform="translate(-2.36 -2.92)"/>
      <path class="cls-1" d="M37.45,57.45l0.91-.2L40.81,61l-0.9.19-0.54-.85-1.64.35-0.15,1-0.84.18Zm0.62,0.72h0L37.83,60,39,59.71Z" transform="translate(-2.36 -2.92)"/>
      <path class="cls-1" d="M41.73,59.71l0.78-.28,0.28,0.78L42,60.49Z" transform="translate(-2.36 -2.92)"/>
      <path class="cls-1" d="M42.78,55.79l1-.54c1.11-.61,2.3-0.76,3.08.68s0,2.35-1.11,3l-1,.54Zm2.39,2.67,0.4-.22a1.42,1.42,0,0,0-1.35-2.49l-0.4.22Z" transform="translate(-2.36 -2.92)"/>
      <path class="cls-1" d="M48.05,56.56l0.68-.47,0.47,0.68-0.68.47Z" transform="translate(-2.36 -2.92)"/>
      <path class="cls-1" d="M49.76,50.9l0.52-.51,2.91,2.95-0.59.58-2.24-2.27-0.1.89-0.67-.09Z" transform="translate(-2.36 -2.92)"/>
      <path class="cls-1" d="M53.46,49.71a1.06,1.06,0,0,1-1.18,0,1.12,1.12,0,0,1-.1-1.7,1.16,1.16,0,0,1,1.62-.52,1.09,1.09,0,0,1,.39,1.14h0a1.16,1.16,0,0,1,1.34,0,1.21,1.21,0,0,1,.13,1.86,1.23,1.23,0,0,1-1.82.46,1.12,1.12,0,0,1-.38-1.22h0Zm0.2-.79a0.71,0.71,0,0,0-.21-0.72,0.48,0.48,0,0,0-.72.1,0.54,0.54,0,0,0,0,.78A0.79,0.79,0,0,0,53.66,48.92Zm1.51,1.19a0.54,0.54,0,0,0-.09-0.8,0.82,0.82,0,0,0-1,.13,0.76,0.76,0,0,0,.24.83A0.6,0.6,0,0,0,55.17,50.11Z" transform="translate(-2.36 -2.92)"/>
      <path class="cls-1" d="M55.68,43.69a1.74,1.74,0,0,0-.47.57,1.12,1.12,0,0,0,.71,1.45h0a0.89,0.89,0,0,1,0-.9,1.14,1.14,0,0,1,1.67-.52,1.3,1.3,0,0,1,.72,1.89c-0.51,1-1.48.83-2.35,0.39S54,45.2,54.61,44a2.55,2.55,0,0,1,.52-0.71Zm1.16,2.4a0.62,0.62,0,0,0,.91-0.19,0.63,0.63,0,0,0-.42-0.82,0.65,0.65,0,0,0-.95.16A0.64,0.64,0,0,0,56.84,46.09Z" transform="translate(-2.36 -2.92)"/>
      <path class="cls-1" d="M57.06,39.28L56.61,40.8l0.84,0.27a1.73,1.73,0,0,1,.07-0.37,1.23,1.23,0,0,1,1.67-.89,1.41,1.41,0,0,1,.89,1.94,4.49,4.49,0,0,1-.39.89L59,42.41a2.1,2.1,0,0,0,.44-0.75A0.77,0.77,0,0,0,59,40.61a0.79,0.79,0,0,0-1,.7,2.4,2.4,0,0,0-.1.74l-2.12-.67,0.68-2.27Z" transform="translate(-2.36 -2.92)"/>
    </g>
  </g>
</svg>
