<?xml version="1.0" encoding="utf-8"?>
<!-- Generator: Adobe Illustrator 21.1.0, SVG Export Plug-In . SVG Version: 6.00 Build 0)  -->
<svg version="1.1" id="Layer_1" xmlns="http://www.w3.org/2000/svg" xmlns:xlink="http://www.w3.org/1999/xlink" x="0px" y="0px"
	 width="600px" height="360px" viewBox="0 0 600 360" style="enable-background:new 0 0 600 360;" xml:space="preserve">
<style type="text/css">
	.st0{fill:#FFFFFF;}
	.st1{fill:#FFFFFF;}
	.st2{fill:#FFFFFF;}
</style>
<g>
	<path class="st0" d="M161.8,277.4c-1.3,1.2-3,1.8-5.1,1.8c-2.1,0-3.9-0.6-5.2-1.9c-1.4-1.3-2.1-2.9-2.1-5.1c0-2.1,0.7-3.9,2.1-5.3
		c1.4-1.4,3.1-2.1,5.2-2.1c2.1,0,3.8,0.8,5.1,2.3c1.3,1.5,2,3.3,2,5.4C163.7,274.6,163.1,276.2,161.8,277.4z"/>
	<path class="st0" d="M274.2,219.5c-1.1-3.9-2.6-6.3-4.8-9.7c-2.1-3.4-4.6-6.4-7.5-8.9c-2.9-2.5-6.1-4.5-9.8-6
		c-3.6-1.5-7.5-2.2-11.5-2.2c-5.6,0-10.6,1.3-15,3.8c-1.9,0.9-7.6,4-11,8.8c-3,4.2-5.2,8.8-6.8,14.1c-1.6,5.2-2.4,10.6-2.4,16.2
		c0,5.9,0.8,11.3,2.5,16.5c1.7,5.1,4,9.6,7.1,13.4c3.1,3.8,6.8,6.1,11.2,8.3c4.4,2.2,9.3,3.3,14.6,3.3c4.2,0,8.2-0.8,11.9-2.3
		c3.7-1.5,7-3.6,9.9-6.1c2.9-2.5,5.3-5.4,7.3-8.7c2-3.3,3.4-6,4.1-9.5h1.5l-0.4,26.9h-1.5c-1-1.4-2-2.6-3.1-3.8
		c-1.1-1.1-1.8-1.7-2.2-1.7c-0.2,0-0.9,0.4-2.2,1.3c-1.3,0.9-3.2,1.8-5.6,2.8c-2.4,1-5.4,1.9-8.9,2.7c-3.5,0.8-7.5,1.2-12.1,1.2
		c-7.6,0-14.4-1.1-20.5-3.2c-6.1-2.2-11.3-5.2-15.6-9.2c-4.3-3.9-7.5-8.7-9.8-14.2c-2.3-5.5-3.4-11.5-3.4-18.1c0-1.5,0.1-3.1,0.3-5
		c0.2-1.9,0.6-3.9,1.1-6c0.5-2.1,1.3-4.3,2.2-6.7c0.9-2.3,2.1-4.7,3.6-7c1.7-2.8,3.8-5.4,6.3-7.9c2.5-2.5,5.5-4.7,8.9-6.7
		c3.4-1.9,7.3-3.4,11.6-4.6c4.3-1.1,9.2-1.7,14.5-1.7c4.9,0,9.2,0.4,12.8,1.3c3.7,0.9,6.7,1.9,9.2,2.9c2.4,1.1,4.3,2,5.6,2.9
		c1.3,0.9,2,1.3,2.2,1.3c0.2,0,0.5-0.2,0.9-0.5c0.4-0.4,0.9-0.8,1.5-1.3c0.5-0.5,1.1-1.1,1.6-1.8c0.6-0.7,1.1-1.4,1.6-2.1h1.3v27.3
		L274.2,219.5z"/>
	<path class="st0" d="M364.2,279.1h-78.4v-1.2c2-0.3,4-0.9,6-1.6c2-0.7,3.6-1.7,4.7-3.1c0.4-0.5,0.8-1.2,1-2.1
		c0.3-0.9,0.5-2,0.7-3.2c0.2-1.2,0.3-2.5,0.4-3.8c0.1-1.3,0.2-2.7,0.2-4c0-1.1,0-2.7,0.1-4.6c0-2,0.1-4.1,0.1-6.4
		c0-2.3,0.1-4.7,0.1-7.1c0-2.5,0-4.9,0-7.1v-23.7c0-1.5,0-2.9,0-4.3c0-1.5-0.1-2.8-0.2-4.1s-0.3-2.4-0.5-3.4c-0.2-1-0.6-1.7-1.1-2.3
		c-1.1-1.4-2.7-2.4-4.6-3.2c-1.9-0.7-3.9-1.2-6-1.5v-1.2h38.9v1.2c-1.1,0.2-2.3,0.4-3.8,0.7c-1.5,0.3-2.8,0.9-4.1,1.6
		c-1.3,0.7-2.4,1.8-3.4,3.1c-0.9,1.3-1.4,3.1-1.5,5.3c-0.1,2.8-0.1,5.5-0.2,7.8c0,2.4-0.1,4.7-0.1,7c0,2.3-0.1,4.6-0.1,7.1
		c0,2.4,0,5.2,0,8.2c0,2.8,0,5.3,0,7.6c0,2.2,0,4.4,0,6.5c0,2.1,0,4.3,0.1,6.5c0,2.2,0.1,4.7,0.1,7.5c0.1,2.6,0.2,5.1,0.3,7.4
		c0.1,2.4,0.2,2.7,1.3,4c0.3,0.4,1,0.8,2,1.2s2.2,0.8,3.5,1c1.4,0.3,2.9,0.5,4.5,0.7c1.6,0.2,3.3,0.3,4.9,0.3c0.7,0,1.7,0,3.1-0.1
		c1.4,0,3-0.1,4.7-0.2c1.7-0.1,3.5-0.3,5.2-0.5c1.8-0.2,3.4-0.6,4.8-1c3.3-0.9,6-2.1,8.1-3.5c2.2-1.5,4-3.2,5.6-5.1
		c1.5-1.9,2.8-4,3.9-6.2c1.1-2.2,2.1-3.4,3.1-5.8l1.2,0.4L364.2,279.1z"/>
	<path class="st0" d="M364.4,279.2H286v-1.2c2-0.3,4-0.9,6-1.6c2-0.7,3.6-1.7,4.7-3.1c0.4-0.5,0.8-1.2,1-2.1c0.3-0.9,0.5-2,0.7-3.2
		c0.2-1.2,0.3-2.5,0.4-3.8c0.1-1.3,0.2-2.7,0.2-4c0-1.1,0-2.7,0.1-4.6c0-2,0.1-4.1,0.1-6.4c0-2.3,0.1-4.7,0.1-7.1c0-2.5,0-4.9,0-7.1
		v-23.7c0-1.5,0-2.9,0-4.3c0-1.5-0.1-2.8-0.2-4.1s-0.3-2.4-0.5-3.4c-0.2-1-0.6-1.7-1.1-2.3c-1.1-1.4-2.7-2.4-4.6-3.2
		c-1.9-0.7-3.9-1.2-6-1.5v-1.2h38.9v1.2c-1.1,0.2-2.3,0.4-3.8,0.7c-1.5,0.3-2.8,0.9-4.1,1.6c-1.3,0.7-2.4,1.8-3.4,3.1
		c-0.9,1.3-1.4,3.1-1.5,5.3c-0.1,2.8-0.1,5.5-0.2,7.8c0,2.4-0.1,4.7-0.1,7c0,2.3-0.1,4.6-0.1,7.1c0,2.4,0,5.2,0,8.2
		c0,2.8,0,5.3,0,7.6c0,2.2,0,4.4,0,6.5c0,2.1,0,4.3,0.1,6.5c0,2.2,0.1,4.7,0.1,7.5c0.1,2.6,0.2,5.1,0.3,7.4c0.1,2.4,0.2,2.7,1.3,4
		c0.6,0.6,1,0.8,2,1.2c1,0.4,2.2,0.8,3.5,1c1.4,0.3,2.9,0.5,4.5,0.7c1.6,0.2,3.3,0.3,4.9,0.3c0.7,0,1.7,0,3.1-0.1
		c1.4,0,3-0.1,4.7-0.2c1.7-0.1,3.5-0.3,5.2-0.5c1.8-0.2,3.4-0.6,4.8-1c3.3-0.9,6-2.1,8.1-3.5c2.2-1.5,4-3.2,5.6-5.1
		c1.5-1.9,2.8-4,3.9-6.2c1.1-2.2,2.1-3.4,3.1-5.8l1.2,0.4L364.4,279.2z"/>
	<path class="st0" d="M489.9,273.3c-0.7-0.9-1-2.4-1.1-4.6c-0.1-2.2-0.1-4.5-0.1-6.8V221c0-2,0-4,0.1-6c0-2,0.1-4,0.1-6
		c0.1-1.9,0.1-3.9,0.2-6c0-2.1,0.4-3.9,1.2-5.2c1.1-2,2.6-3.3,4.5-3.9c2-0.7,3.8-1.1,5.5-1.3v-1.2h-1c-5.8,0.9-11.7,1.4-17.4,1.4
		c-6.1,0-12-0.5-17.8-1.4h-0.2v1.2c2.1,0.2,4,0.7,5.7,1.3c1.7,0.6,3.1,1.6,4.2,3c0.5,0.6,0.9,1.4,1.1,2.4c0.2,1,0.4,2.2,0.5,3.4
		c0.1,1.3,0.2,2.6,0.2,4.1v35.3c0,2.4,0,4.8-0.1,7.1c0,2.3-0.1,4.5-0.1,6.4c0,2-0.1,3.5-0.1,4.6c0,1.3,0,2.6-0.1,4
		c0,1.3-0.1,2.6-0.2,3.8c-0.1,1.2-0.3,2.3-0.5,3.2c-0.2,0.9-0.5,1.6-0.9,2.1c-1.2,1.4-2.7,2.4-4.5,3.2c-1.8,0.7-3.6,1.3-5.7,1.6v1.2
		h37v-1.2c-1.7-0.2-3.6-0.6-5.7-1.3C492.4,275.8,490.9,274.7,489.9,273.3z"/>
	<g>
		<path class="st0" d="M135.5,354.8l1,1.8c-2.2,1.4-4.2,2.4-6,3c-1.8,0.6-3.7,0.9-5.8,0.9c-4.2,0-7.6-1.2-10-3.6
			c-2.4-2.4-3.6-5.6-3.6-9.7c0-4.3,1.4-7.8,4.1-10.4c2.7-2.6,6.5-3.9,11.3-3.9c1.5,0,3,0.1,4.5,0.4c1.4,0.2,3.2,0.7,5.3,1.4
			c-0.1,0.8-0.1,1.7-0.1,2.5c0,1.5,0.1,3.4,0.3,5.5h-2.1c-0.6-2.4-1-3.8-1.2-4.2c-0.5-0.9-1.2-1.7-2.3-2.4c-1.1-0.6-2.5-1-4.3-1
			c-2.7,0-4.9,0.8-6.3,2.5c-1.8,2-2.7,4.8-2.7,8.3c0,3.7,0.9,6.4,2.7,8.4c1.8,1.9,4.2,2.9,7.3,2.9
			C130.2,357.1,132.8,356.4,135.5,354.8z"/>
		<path class="st0" d="M171,347.1c0-4.3,1.3-7.7,3.9-10.3c2.6-2.6,6.2-3.9,10.6-3.9c4.2,0,7.5,1.2,9.8,3.5c2.4,2.3,3.6,5.5,3.6,9.4
			c0,2.5-0.5,4.8-1.4,6.8c-0.7,1.6-1.7,3-2.9,4.1c-1.2,1.1-2.4,2-3.6,2.5c-1.8,0.8-4,1.2-6.6,1.2c-4.3,0-7.6-1.2-10-3.5
			C172.2,354.6,171,351.3,171,347.1z M177.5,346.1c0,4.5,0.8,7.9,2.5,10c1.2,1.6,3,2.4,5.3,2.4c1.6,0,2.9-0.4,4-1.2
			c1.1-0.8,1.9-2.1,2.4-3.9c0.5-1.8,0.8-3.9,0.8-6.2c0-1.8-0.2-3.5-0.5-5.2s-0.8-3-1.3-3.9c-0.6-0.9-1.3-1.7-2.3-2.3
			c-0.9-0.6-2.1-0.9-3.4-0.9c-1.5,0-2.8,0.4-4,1.2c-1.2,0.8-2,2.1-2.6,3.9C177.8,341.9,177.5,343.9,177.5,346.1z"/>
		<path class="st0" d="M231.6,334.8v-1.4c3.2,0.1,5.7,0.2,7.5,0.2c1.8,0,4.3-0.1,7.3-0.2v1.4c-2.6,0.4-4,0.6-4.2,0.7
			c-0.4,0.2-0.6,0.8-0.6,1.6l-0.1,4.8v15.5h6.8c1.1,0,1.9-0.1,2.3-0.2c0.5-0.2,1-0.6,1.5-1.1c0.5-0.5,1.3-1.8,2.5-3.8h1.7
			c-0.8,2.3-1.7,4.8-2.5,7.6c-5.3-0.1-9.7-0.2-13.3-0.2c-2.9,0-5.9,0.1-9,0.2v-1.4c2.2-0.4,3.4-0.7,3.7-0.9c0.2-0.2,0.4-0.5,0.4-0.9
			c0.1-0.4,0.1-3.4,0.1-9l0-6.8v-1.2c0-2-0.1-3.2-0.2-3.6c-0.1-0.3-0.3-0.5-0.5-0.6C234.8,335.5,233.6,335.2,231.6,334.8z"/>
		<path class="st0" d="M288,334.8v-1.4c3.2,0.1,5.7,0.2,7.5,0.2c1.8,0,4.3-0.1,7.3-0.2v1.4c-2.6,0.4-4,0.6-4.2,0.7
			c-0.4,0.2-0.6,0.8-0.6,1.6l-0.1,4.8v15.5h6.8c1.1,0,1.9-0.1,2.3-0.2c0.5-0.2,1-0.6,1.5-1.1c0.5-0.5,1.3-1.8,2.5-3.8h1.7
			c-0.8,2.3-1.7,4.8-2.5,7.6c-5.3-0.1-9.7-0.2-13.3-0.2c-2.9,0-5.9,0.1-9,0.2v-1.4c2.2-0.4,3.4-0.7,3.7-0.9c0.2-0.2,0.4-0.5,0.4-0.9
			c0.1-0.4,0.1-3.4,0.1-9l0-6.8v-1.2c0-2-0.1-3.2-0.2-3.6c-0.1-0.3-0.3-0.5-0.5-0.6C291.1,335.5,290,335.2,288,334.8z"/>
		<path class="st0" d="M344.4,334.8v-1.4c3,0.1,6.3,0.2,9.8,0.2c4.1,0,8.3-0.1,12.7-0.2c0,2.6,0.2,4.9,0.5,6.8h-1.6
			c-0.2-0.4-0.3-0.7-0.3-0.9c-0.6-1.8-1.1-2.8-1.4-3.1c-0.4-0.3-1.1-0.4-2.4-0.4h-7.2c-0.1,2.1-0.2,5.2-0.2,9.2l3.3,0
			c1.7,0,2.8-0.2,3.2-0.5c0.4-0.3,0.8-1.4,1.3-3.3h1.6c-0.1,1.8-0.2,3.4-0.2,4.8c0,1.3,0.1,3,0.2,5H362c-0.4-2-0.7-3.2-1-3.5
			c-0.3-0.3-1.3-0.4-3-0.4h-3.7v10.4h7.5c0.8,0,1.4,0,1.7-0.2c0.4-0.2,0.8-0.5,1.2-0.9c0.8-0.8,1.7-2.2,2.7-4h1.7
			c-0.7,2.1-1.5,4.5-2.3,7.4c-4.3-0.1-8.7-0.2-13.4-0.2c-2.1,0-5.1,0.1-8.9,0.2v-1.4c2.1-0.4,3.3-0.7,3.6-0.9c0.4-0.3,0.6-1,0.6-2.2
			v-0.6l0-7.4v-6l0-2.8c0-1.3-0.1-2.2-0.2-2.5c-0.1-0.3-0.4-0.6-0.8-0.8C347.2,335.3,346.1,335.1,344.4,334.8z"/>
		<path class="st0" d="M432.7,346.2v1.4c-1.7,0.3-2.8,0.6-3.3,0.8c-0.2,0.1-0.4,0.3-0.5,0.6c-0.1,0.3-0.2,1.3-0.2,2.9
			c0,2.6,0,4.8,0.1,6.8c-0.9,0.1-1.8,0.3-2.8,0.5c-2.7,0.6-4.6,0.9-5.7,1.1c-1.2,0.1-2.4,0.2-3.8,0.2c-3.1,0-5.6-0.4-7.4-1.2
			c-2.3-1-4-2.5-5.2-4.6c-1.2-2.1-1.8-4.5-1.8-7.3c0-5,1.9-8.9,5.6-11.7c2.7-1.9,6.2-2.9,10.6-2.9c2.9,0,6.3,0.4,9.9,1.3
			c0,0.7,0,1.3,0,1.8c0,1.5,0.1,3.5,0.2,6.2h-1.9c-0.5-2.1-1.1-3.5-1.6-4.3c-0.5-0.8-1.4-1.4-2.5-1.9c-1.1-0.5-2.5-0.7-4.1-0.7
			c-2.1,0-3.9,0.4-5.3,1.3c-1.4,0.9-2.5,2.2-3.3,4c-0.8,1.8-1.2,3.9-1.2,6.2c0,3.7,0.9,6.6,2.7,8.5c1.8,1.9,4.1,2.9,7,2.9
			c1.5,0,3-0.3,4.7-1v-5.7c0-1.3-0.1-2.1-0.2-2.4c-0.1-0.2-0.3-0.4-0.5-0.5c-0.3-0.1-1.1-0.3-2.4-0.6c-0.2,0-0.4-0.1-0.7-0.2v-1.4
			c2.9,0.1,5,0.2,6.5,0.2C426.7,346.4,429.1,346.3,432.7,346.2z"/>
		<path class="st0" d="M464.3,334.8v-1.4c3,0.1,6.3,0.2,9.8,0.2c4.1,0,8.3-0.1,12.7-0.2c0,2.6,0.2,4.9,0.5,6.8h-1.6
			c-0.2-0.4-0.3-0.7-0.3-0.9c-0.6-1.8-1.1-2.8-1.4-3.1c-0.4-0.3-1.1-0.4-2.4-0.4h-7.2c-0.1,2.1-0.2,5.2-0.2,9.2l3.3,0
			c1.7,0,2.8-0.2,3.2-0.5c0.4-0.3,0.8-1.4,1.2-3.3h1.6c-0.1,1.8-0.2,3.4-0.2,4.8c0,1.3,0.1,3,0.2,5h-1.6c-0.4-2-0.7-3.2-1-3.5
			c-0.3-0.3-1.3-0.4-3-0.4h-3.7v10.4h7.5c0.8,0,1.4,0,1.7-0.2c0.4-0.2,0.8-0.5,1.2-0.9c0.8-0.8,1.7-2.2,2.7-4h1.7
			c-0.7,2.1-1.5,4.5-2.3,7.4c-4.3-0.1-8.7-0.2-13.4-0.2c-2.1,0-5.1,0.1-8.9,0.2v-1.4c2.1-0.4,3.3-0.7,3.6-0.9c0.4-0.3,0.6-1,0.6-2.2
			v-0.6l0-7.4v-6l0-2.8c0-1.3-0.1-2.2-0.2-2.5c-0.1-0.3-0.4-0.6-0.8-0.8C467.1,335.3,466.1,335.1,464.3,334.8z"/>
	</g>
	<rect y="302.9" class="st1" width="600" height="5.8"/>
	<g>
		<path class="st2" d="M322,35.9c0,0-2.5,4.3-2.7,6.3c0,0,26.9-4.2,33.4-3.4c6.5,0.7,14-0.9,17.5-6.7l-6.2-1.7
			c0,0,11.7-11.3,3.9-25.7c0,0-5.7,13.9-37.6,23.1C330.2,27.7,328.4,35.9,322,35.9z"/>
		<path class="st2" d="M283.5,23.6c7.6,9.1,0.3,10.1,0.3,10.1c-7.2,1.8-17.8-4.8-17.8-4.8c-1.2,9.4,12.9,9.5,12.9,9.5
			c4.9,0.6,4,1.4,1.6,2.8c-2.4,1.4-8.8-1-13.6-0.6c-4.8,0.4-3.6,2.1-1.9,3.2c1.7,1.1-2.4,2.7-2.4,2.7c-10.4,3.9-9.7,10.1-9.7,10.1
			l12.3,4c-0.4,2.6-4.2,6.9-4.2,6.9c1.5,0.7,6.8,0.8,6.8,0.8c2.3-1.1,3.1,0.8,3.1,0.8l-0.8,4.1l3.8,0.7c2.9-0.9,4,2.7,4,2.7
			c-0.5,3.2,7.2,9.3,7.2,9.3c-1.1-2.3,2.5-6.7,2.5-6.7c1.7,1.1,11,3.9,11,3.9c-1.8-2.1,0-11.1,0-11.1c6.5,3.1,10.3-0.9,10.3-0.9
			c-6.5-4.4-6.6-21.5,0.5-23c7.1-1.5,8.9-15.7,8.9-15.7c9.1,2.1,9.5-7.8,9.5-7.8c-1,1.1-15.6-0.5-19.5-3.5c-3.9-3-15.6-9.2-18.5-7.3
			c-2.9,1.9-7.1-0.9-7.1-0.9c-12.6-3-15.5,6.6-15.5,6.6C282.3,20.6,283.5,23.6,283.5,23.6z M297.6,22c0,0-6-1.3-7.1-2.2
			C290.5,19.8,294.3,17.1,297.6,22z M304.2,42.5c0,0-7.4,10.1-14.9-2C289.3,40.5,294.9,47.4,304.2,42.5z"/>
		<path class="st2" d="M382.3,30.9c0,0-11.2,11.7-40.3,11.6c0,0-21.7-0.1-28.3,6.8c-6.5,6.9-9.4,16.2,1.3,22.8c0,0-0.1,8-13,3.5
			c0,0-1.7,6.2,1.6,10.5l-13.7-2.7L289,88c0,0,9.4,4.9,11.5,7.1c2.1,2.2,0.3-2.3,0.3-2.3s0,0,0,0c0,0,0,0,0,0c0,0,0,0,0,0
			c0,0,0,0,0,0c0,0,0,0,0,0c0.1,0.1,0.2,0.1,0.3,0.2c0,0,0,0,0,0c0,0,0.1,0.1,0.1,0.1c0,0,0,0,0,0c1.4,1,4.8,3.5,8.6,5c0,0,0,0,0,0
			c0.2,0.1,0.3,0.1,0.5,0.2c1.6,0.6,3.3,1.1,4.9,1.2c0,0-0.3-0.9-0.6-1.8c0-0.1,0-0.2-0.1-0.3c0,0,0,0,0-0.1c0-0.1,0-0.1,0-0.2
			c0,0,0,0,0-0.1c0-0.1,0-0.2,0-0.2c0,0,0,0,0,0c0-0.1,0-0.2,0-0.3c0,0,0,0,0,0c0-0.1,0-0.1,0-0.2c0,0,0,0,0-0.1c0-0.1,0-0.1,0-0.2
			c0,0,0,0,0-0.1c0-0.1,0-0.1,0-0.2c0,0,0,0,0-0.1c0-0.1,0-0.1,0-0.2c0,0,0,0,0,0c0,0,0-0.1,0.1-0.1c0,0,0,0,0,0c0,0,0-0.1,0.1-0.1
			c0,0,0,0,0,0c0,0,0.1,0,0.1,0c0,0,0,0,0,0c0.1,0,0.1,0,0.2,0c0,0,0,0,0,0c0.1,0,0.1,0,0.2,0c0,0,0.1,0,0.1,0c0.1,0,0.1,0,0.2,0.1
			c0,0,0.1,0,0.1,0c0.1,0,0.1,0.1,0.2,0.1c0,0,0.1,0,0.1,0.1c0.1,0.1,0.2,0.1,0.3,0.2c0.2,0.1,0.4,0.3,0.7,0.4c0,0,0,0,0,0
			c0.2,0.1,0.5,0.2,0.7,0.3c0,0,0,0,0,0c0.2,0.1,0.5,0.2,0.7,0.3c3.3,1.2,7.2,1,8.1,0.7c0,0-0.5-0.6-0.9-1.4c0-0.1-0.1-0.1-0.1-0.2
			c0,0,0,0,0,0c0-0.1-0.1-0.1-0.1-0.2c0,0,0,0,0,0c-0.1-0.1-0.1-0.3-0.2-0.4c0,0,0,0,0,0c0-0.1,0-0.1,0-0.2c0,0,0,0,0-0.1
			c0,0,0-0.1,0-0.1c0,0,0,0,0,0c0-0.1,0-0.1,0-0.2c0,0,0,0,0,0c0-0.1,0-0.1,0-0.2c0,0,0,0,0,0c0,0,0-0.1,0.1-0.1c0,0,0,0,0,0
			c0,0,0-0.1,0.1-0.1c0,0,0,0,0,0c0,0,0.1-0.1,0.1-0.1c0,0,0,0,0,0c0.1,0,0.1-0.1,0.2-0.1c0,0,0,0,0,0c0.1,0,0.1,0,0.2,0
			c0,0,0.1,0,0.1,0c0.1,0,0.1,0,0.2,0c0,0,0.1,0,0.1,0c0.1,0,0.2,0,0.2,0c0,0,0.1,0,0.1,0c0.1,0,0.3,0,0.4,0.1
			c4.1,0.8,8.4-1.4,8.4-1.4s-5.6-5.5-1.7-4.8c3.8,0.7,8.3,0.2,8.6-1c0.3-1.2-4.4-3.5-1.9-4.2c2.5-0.7,9,1.4,13.4-3.8
			c0,0-8.3-5.2-5.2-5.7c0,0,10,0,11.7-3.6c0,0-4.7-3.6-1.3-4c3.5-0.4,12.2-4.4,14-9.6c0,0-4-1.4-2.5-3.3
			C370.8,52.6,382.6,48.4,382.3,30.9z"/>
		<path class="st2" d="M283.6,30.6c3.4-0.1-0.2-4.4-0.2-4.4c-1.8-3.2-6.8-3.5-10.8-3.2c-4.1,0.2-9.6-2.9-9.6-2.9
			C261.3,30,283.6,30.6,283.6,30.6z"/>
		<path class="st2" d="M409.6,65.1c0,0-7,6.2-10.9-0.6c0,0-12.8-14.8-25.5-4.8c0,0-9.5,5.5-19.1,35.1c0,0-2.7-1.6-6.1-2.3
			c-13.5-3.4-21.6,6.2-22.5,13.1c-0.6,4.9,1.6,10.1,3.4,13.2c-2.3,0.7-4.4,1.1-6,1.3c-3.4-14-18.7-16.6-18.7-16.6
			c-1.1-3.3-9.8-9.7-16-11.3c-6.2-1.7-11.3-9.1-12.2-10.6c-0.9-1.6-2.3-5-6.2-4.3c0,0-5.6,2.2-4.9-1.6l0.7-3.8
			c0,0-11.5-7.1-13.9,3.3c0,0-3.8,9,12.4,21.1c0,0,11.8,5.8,9.3,14.2c-2.6,8.3-3.9,13.3-0.5,18.3c3.4,4.9,3,7.5-0.1,12.7
			c-3.1,5.2,4.8,10.7,5.9,10.3c1.1-0.4-0.8-6.9,4.6-7.1c5.4-0.2,11.6,6.8,20.7,3.9c0.5-0.2,1-0.3,1.4-0.4
			c10.6-0.4,13.9,2.9,13.9,2.9s4-8.6,4.5-19.7c7.2-2,18-5.9,21.1-11.3c0,0,0,0,0,0c1.4-1,2.8-2.2,4.1-3.6c0,0,3.3-2.5,7.4-9.1
			c0,0,2.7-6.3,6.3-1c3.6,5.3,3.6,7.7,3.6,7.7s5.8-9.2,2-13.8c0,0-6.2-1.7-6.6-6.5c0,0,0.8-25.6,21.6-30.7c0,0,11.4,2.4,8,6.5
			c0,0-4.2,1.9-4.4,7.8c0,0-1.8,7.9-7.2,5.5c0,0,9.3,9.2,20.4,0.1c0,0,3.7-3.7,3.3-8.5c0,0,0.3-1.2,2.5-1.7
			C406,72.5,410.2,71.6,409.6,65.1z M338.1,99.5c2.7-0.8,5.3-0.3,7.2,0.5c1.2,1,1.7,2.2,1.7,2.2s-1.4,4.5-5.3,8.8
			c-1,0.9-1.6,1.7-3.7,2.3C329,113.3,332.2,102.9,338.1,99.5z"/>
		<path class="st2" d="M341.6,137.1c0.6-4.5,1.2-11.5-1.8-9.5c-4.3,2.9-13.4,5.8-13.4,5.8c-1.4,13.8-6.1,20.6-6.1,20.6s0,0-5.6-2
			c-5.6-2-9.2-0.3-9.2-0.3c-5.3-1-10.7-0.9-12.7,2.7c0,0,3,1.5,3.8,2c0,0-4,2.6-5,6c0,0,3.9,0.4,4.9,1.6c0,0-0.8,3.1-0.6,4.9
			c0,0,1.3-1.2,4.8-0.7c0,0,6.4-2.4,17-6.1c10.6-3.6,10.2-11.2,15.5-7.9c1.7,1.1,2.5,1.8,2.9,2.4l2-6.8v1.2c0.5-0.9,1.3-2,2.6-3.3
			c3.7-3.7,4.1-9,1.8-11.6C342.5,136.4,342.2,136.7,341.6,137.1z"/>
		<path class="st2" d="M266.8,123.2c-0.7-2.2,4.2-15.6,4.2-15.6c-13.4,5.1-21.2-2-22.2-2.3c-0.9-0.3-7.7-6.1-12.9-0.8
			c-5.1,5.3-1.3,4.7-1.3,4.7c4.7-1.4,8.1,3.5,4.7,4.9c-3.4,1.4-9.9,9.4-11.3,13.4c-1.4,4-7.7-2.4-7.7-2.4c-12.4-6-19.3-6.5-24.4-6.2
			c-5.1,0.3,0.5,3.1,0.5,3.1c2.5,0.7-0.6,3.5-4.9,4.7c-4.3,1.2,4.2,3.1,4.2,3.1c2.6,0.4-5.1,7.7-2.5,5.7c2.5-2,9.4,2.5,9.4,2.5
			c2.9,5.5,13.3,2.9,13.3,2.9c9.7-3.8,18.4,8.9,18.4,8.9c5.9-3.4,1-15.1,1-15.1c-2.5-4.4,10.4-3.9,10.4-3.9c4.7,2.6,2.1,8.6,2.1,8.6
			c10.8,3.2,12.7-8.6,12.7-8.6c0.8-1.8,10,0,10,0C269,130.2,267.6,125.4,266.8,123.2z"/>
		<path class="st2" d="M213.9,55.8l-3.5,5.7c0,0,3.2,0.5,5.2,1.7c2,1.2,2.8,3.4,6.1,3.3c3.4-0.1,13.6-4.4,16.7-1.2
			c3.2,3.2,1.6,5.1,1.6,5.1s2.7,7.4,8.8,4.7c0,0-0.4-7.1,5-8.7c0,0,4.5-0.5,5.3-4.9c0,0-13.3-1.6-9.8-7c3.5-5.4,6-8.8,11.2-10.7
			c0,0-11.6-5.4,3.5-5.7c0,0-14.6-9.3-9.6-26.7c0,0-0.1-8.4-10.3-11.5c0,0,1,6.3-3.3,2.1c0,0-7.5-3.3-6.7-1.1c0,0,2.9,6.5,0.5,5.5
			c0,0-9.7-2.6-9.6-0.6c0,0,5.4,4.8,4,7.4c0,0-2.3,2.4,2.6,6.4c5,4,10,6.4,7.3,12.7l-0.9,3.4c0,0,6.1,1,6.5,3.4
			c0.3,2.4,1.1,6,2.6,6.7c0,0,0,2.7-1.5,3c0,0-7.9,4.6-12.1-1.2c0,0-2.8-8.1-12.7-7.4c0,0-2.3-0.3-4.1-1.1c0,0,5.6,5.5,1.9,4.2
			c0,0-9.3-0.2-9,3.6C209.9,47,216.8,51.2,213.9,55.8z"/>
	</g>
	<path class="st0" d="M454.9,276.5c-1.4-0.6-2.5-1.4-3.5-2.3c-0.9-0.8-1.7-1.7-2.3-2.5c-0.6-0.8-0.9-1.4-1.1-1.7
		c-1-2.1-1.8-4-2.6-5.7c-0.8-1.7-1.6-3.8-2.5-6.3c-2-5.1-3.9-10.3-5.9-15.6c-2-5.2-4-10.7-6.1-16.3c-2.1-5.6-4.2-11.5-6.5-17.5
		c-2.3-6.1-4.7-12.5-7.2-19.2h-1c-0.3,0.6-0.8,1.3-1.4,2.2c-0.6,0.9-1.3,1.8-2.3,2.8c-0.9,1-1.9,1.9-3.1,2.8
		c-1.2,0.9-2.5,1.7-3.9,2.3l1.2,2.7c-2,4.6-4,9.5-6.3,14.7c-2.2,5.3-4.4,10.5-6.6,15.6c-2.3,5.2-4.4,10.2-6.5,15.1
		c-2.1,4.9-4,9.2-5.7,13c-1.9,4.2-3.4,7.3-4.8,9.4c-1.3,2.1-2.2,3.4-2.8,4c-0.2,0.3-1.1,0.9-2.6,1.8c-1.5,0.9-3.3,1.5-5.4,1.7v1.3
		h26V278c-1-0.2-0.9-0.2-1.8-0.4c-0.7-0.2-1.3-0.4-1.9-0.6c-3.6-2.1-3.6-4.1-3.1-6.5c0.2-0.9,4.3-11.1,9.2-23h29.1
		c2,2.4,2.6,4.1,3.7,7c1.1,3,2,5.6,2.8,8c0.8,2.4,1.4,4.4,1.9,6.1c0.4,1.7,0.7,2.9,0.7,3.6c0,1.1-0.4,2.1-1.2,2.8
		c-0.8,0.7-1.7,1.3-2.7,1.7c-1,0.4-2,0.7-2.9,0.9c-0.9,0.1-1.5,0.2-1.8,0.2v1.2h35.7v-1.5C457.9,277.5,456.3,277.1,454.9,276.5z
		 M396.5,242.8c5.5-13.3,11.4-27.5,13.7-33.2c0.2,0.7,0.4,1.5,0.7,2.3c1.1,2.8,2.3,5.9,3.7,9.3c1.3,3.4,2.7,6.9,4.2,10.6
		c1.4,3.7,2.8,7.3,4.2,11H396.5z"/>
	<path class="st0" d="M157.7,213.8l-3.9-24.5c-1.9,0.6-3.7,0.8-5.4,1.2c-1.8,0.4-4,0.6-6.7,0.7c-3.1,0-5.9,0-8.3,0.1
		c-2.4,0-4.8,0.1-7.1,0.1c-2.3,0-4.6,0.1-7.1,0.1c-2.4,0-20.9,0-23.2,0c-2.3,0-4.6,0-7.1-0.1c-2.4,0-5.2-0.1-8.3-0.2
		c-3-0.1-5.3-0.2-6.9-0.5c-1.6-0.2-3.3-0.4-5.2-0.8l-3.7,23.9l1.1,0.4c0,0,9.3-15.7,14.2-16.8c2-0.5,12.4-0.6,24.1-0.5v37.9
		c0,2.2,0,4.5,0,7c0,2.4,0,4.8-0.1,7.1c0,2.3-0.1,4.4-0.1,6.2c0,1.9-0.1,3.4-0.1,4.5c0,1.3,0,2.6-0.1,4c0,1.4-0.1,2.7-0.2,3.8
		c-0.1,1.2-0.3,2.2-0.5,3.2c-0.2,0.9-0.5,1.6-0.9,2c-1.9,2.1-3.8,3.5-5.7,4c-2,0.6-4,1-6.1,1.2v1.2h39.7v-1.2
		c-1.8-0.3-3.8-0.8-6-1.5c-2.2-0.7-4-1.9-5.2-3.7c-0.7-0.9-1-2.4-1.2-4.6c-0.1-2.2-0.2-4.4-0.2-6.8v-27.1c0-2.5,0-5.6,0-9.3
		c0-3.7,0-7.5,0-11.4c0-3.8,0-7.5,0.1-11c0-2.4,0-4.2,0.1-5.7c12.1,0.2,22.8,0.4,24,0.4c2.8,0,6.2,3,14.5,16.8l0.1,0.1l0.9-0.3
		L157.7,213.8z"/>
	<path class="st0" d="M590,274.1c-2.8-2-5.8-5-8.8-9.3c-2-2.8-4.2-5.9-6.7-9.5c-2.5-3.6-4.8-6.9-6.9-10c-1.2-1.7-2.5-3.3-3.8-4.6
		c-1.3-1.4-2.6-2.4-4-3.2v-0.4c2.7-0.9,5.2-2,7.7-3.3c2.4-1.3,4.6-2.9,6.4-4.7c1.8-1.8,3.3-3.9,4.4-6.3c1.1-2.4,1.6-5.1,1.6-8.1
		c0-4.9-1.1-8.9-3.3-12.1c-2.2-3.2-5.1-5.8-8.7-7.6c-3.5-1.9-7.4-3-11.6-3.3c-4.2-0.3-9.1-0.5-14.5-0.5c-2.2,0-5,0-8.5,0
		c-3.5,0-7,0-10.5,0.1c-3.5,0-6.6,0.1-9.4,0.1c-2.7,0-4.4,0-5,0v1.2c2.2,0.3,4,0.7,5.6,1.2c1.5,0.4,2.9,1.3,4.1,2.6
		c0.5,0.5,0.9,1.3,1.2,2.4c0.3,1.1,0.5,2.3,0.6,3.7c0.1,1.3,0.2,2.8,0.2,4.3c0,1.5,0.1,3,0.1,4.5v23.8c0,2.2,0,4.6,0,7.1
		c0,2.4,0,4.8-0.1,7.1c0,2.3-0.1,4.5-0.1,6.4c0,2-0.1,3.5-0.1,4.6c0,1.3,0,2.6-0.1,4c-0.1,1.4-0.2,2.7-0.3,3.9
		c-0.1,1.2-0.3,2.3-0.5,3.3c-0.2,1-0.6,1.7-1,2.2c-1.1,1.3-2.5,2.3-4.4,2.9c-1.9,0.7-3.8,1.1-5.9,1.5v1.2h39.1v-1.2
		c-3.3-0.2-5.9-0.8-7.8-1.9c-1.9-1.1-3.1-2.2-3.8-3.2c-0.8-1.2-1.3-2.8-1.3-4.6c-0.1-1.9-0.2-4.1-0.2-6.7c-0.1-2.7-0.1-6-0.1-9.9
		c0-3.9,0-7,0-12.3c1.3,0,5.7-0.5,7.3-0.1c2.1,0.5,3.2,0.6,5.1,2.3c1.9,1.6,3.7,3.4,5.3,5.2c2,2.3,3.6,4.3,5.1,6.2
		c1.4,1.8,2.7,3.6,4,5.4c1.2,1.8,2.4,3.6,3.6,5.4c1.2,1.8,2.5,3.9,4.1,6.2c1.3,1.9,2.3,3.3,2.9,4.2c0.6,0.9,1.1,1.6,1.5,2.1
		c0.4,0.5,0.8,0.9,1.1,1.3c0.3,0.4,0.9,0.9,1.6,1.6h25v-1.2C596.2,277.3,592.8,276,590,274.1z M551.2,233.9
		c-2.7,0.9-5.5,1.5-8.4,1.8c-2.9,0.3-6,0.4-9.3,0.4c0-0.7,0-2.2,0-4.6c0-2.5,0-5.5,0-8.8c0-3.3,0-6.8,0.1-10.4
		c0-3.6,0.1-6.8,0.2-9.6c0.1-1.9,0.1-3.3,0.2-4.3c0-1,0.1-1.8,0.1-2.4c0-0.4,0.1-0.7,0.1-1c4.3-0.3,18.7-1,24.9,3.7
		c0,0,0.1,0.1,0.1,0.1c0,0,0,0,0,0c1.5,1.3,2.7,2.7,3.7,4.3c2,3.2,3.1,6.8,3.1,10.9c0,2.2-0.3,4.3-0.9,6.3c-0.6,2-1.4,3.9-2.6,5.7
		c-1.2,1.8-2.7,3.3-4.6,4.7C556,232,553.8,233.1,551.2,233.9z"/>
	<path class="st0" d="M55.8,240.5c-3-3.9-7.3-6.8-12.8-8.8c-1.5-0.6-3-1.1-4.4-1.6c-1.4-0.5-2.8-1-4.2-1.4c-1.4-0.4-2.8-0.9-4.2-1.4
		c-1.4-0.5-2.9-1.1-4.6-1.7c-0.1,0-0.1-0.1-0.2-0.1c-1.6-0.7-14-6.4-13.3-17.4c0.8-11.8,13.3-18.1,23.7-14.9
		c10.4,3.2,18.8,20.7,18.8,20.7H56v-22.6h-1.3c-0.7,1-1.4,2-2.1,2.9c-0.8,1-1.3,0.7-1.5,0.7c-0.1,0-0.5-0.3-1.4-0.9
		c-0.9-0.6-2.1-1.3-3.8-2c-1.7-0.7-3.8-1.4-6.4-2c-2.6-0.6-5.7-0.9-9.4-0.9c-3.9,0-7.6,0.5-11.2,1.5c-3.5,1-6.7,2.6-9.4,4.7
		c-2.7,2.1-4.9,5.5-6.5,8.7c-1.6,3.2-2.4,7-2.4,11.4c0,2.6,0.4,5.1,1.3,7.4c0.9,2.3,2.1,4.4,3.5,6.3c1.5,1.9,3.2,3.6,5.1,5
		c2,1.4,4,2.5,6.1,3.4c1.9,0.7,3.5,1.3,4.8,1.8c1.3,0.4,2.6,0.9,3.9,1.3c1.3,0.4,2.6,0.9,4.1,1.4c1.5,0.5,3.2,1.1,5.1,1.8
		c2,0.7,3.8,1.5,5.5,2.4c1.7,0.9,3.2,2,4.5,3.2c0.4,0.4,0.8,0.9,1.2,1.4c4.9,7.4,2.9,24.3-13.9,26.1c-15.8,1.7-25.7-12.4-27.1-14.5
		c-0.3-0.5-0.5-0.9-0.8-1.4c-1.1-2.1-2.1-4.2-2.8-6.4H0l0.4,24.3h1.1c0.7-0.9,1.4-1.8,2.2-2.8c0.8-1,1.3-0.8,1.6-0.8
		c0.2,0,0.8,0.3,1.8,0.9c0.9,0.6,2.3,1.2,4.2,1.9c1.9,0.7,4.2,1.3,7.1,1.8c2.8,0.5,6.3,0.7,10.3,0.7c4.6,0,8.9-0.5,12.8-1.6
		c3.9-1.1,7.3-2.7,10.1-4.9c2.8-2.2,5-4.8,6.6-7.9c1.6-3.1,2.4-6.6,2.4-10.5C60.4,249.9,58.9,244.4,55.8,240.5z"/>
</g>
</svg>
