<?xml version="1.0" encoding="UTF-8" standalone="no"?>
<svg id="svg3355" xmlns:rdf="http://www.w3.org/1999/02/22-rdf-syntax-ns#" xmlns="http://www.w3.org/2000/svg" xml:space="preserve" height="103.85" viewBox="0 0 576.87903 103.84964" width="576.88" version="1.1" xmlns:cc="http://creativecommons.org/ns#" xmlns:dc="http://purl.org/dc/elements/1.1/"><defs id="defs3359"><clipPath id="clipPath3387" clipPathUnits="userSpaceOnUse"><path id="path3389" d="m0 612h792v-612h-792v612z"/></clipPath></defs><g id="g3363" transform="matrix(1.25 0 0 -1.25 -243.7 439.73)"><g id="g4311"><path id="path3365" d="m386.48 351.54h2.789v-82.694h-2.789v82.694z" fill="#ffffff"/><g id="g3367" fill="#ffffff" transform="translate(197.61 348.63)"><path id="path3369" d="m0 0h59.947v-22.073h-18.982v5.124h-15.917v-14.726h18.222v-15.883h-18.222v-12.705h5.366v-16.589h-30.414v16.589h5.712v43.314h-5.712v16.949zm-2.65-19.659 5.685 0.008v-37.886l-5.685-0.019v-21.965h35.671v21.944h-5.266v7.262l18.243-0.034v21.348l-18.243 0.038v9.355h10.291v-5.146h24.651v27.404h-65.347v-22.309zm70.886 19.659h30.413v-16.949h-5.478v-43.314h5.478v-16.589h-30.288v16.589h5.479v43.314h-5.604v16.949zm-2.647-19.608h5.596v-37.959h-5.596v-21.936h35.672v21.936h-5.422v37.959h5.466v22.258h-35.716v-22.258zm106.42 2.659h-5.474l-0.012-45.384-13.88-14.519h-26.589l-13.866 14.519v45.384h-5.483v16.949h28.035v-16.949h-3.216v-41.673l0.004 0.009 1.584-1.65h12.486 0.008l1.593 1.655v41.659h-3.216v16.949h28.026v-16.949zm-31.303 19.599v-22.267l3.829 0.009-0.008-37.977h-10.288v37.973h3.419v22.262h-33.578v-22.258h5.414v-44.073l15.096-15.846h29.607l14.98 15.846v44.073h5.526v22.258h-33.997z" fill="#ffffff"/></g><g fill="#ffffff"><g id="g3371" transform="translate(341.27 331.68)"><path id="path3373" d="m0 0h3.54v-41.66l-1.593-1.654h-0.008-12.485l-1.585 1.649-0.004-0.008v41.673h3.216v16.949h-28.035v-16.949h5.483v-45.384l13.866-14.519h26.589l13.88 14.519 0.012 45.384h5.475v16.949h-28.351v-16.949z" fill="#ffffff"/></g><g id="g3375" transform="translate(296.26 348.63)"><path id="path3377" d="m0 0h-30.414v-16.949h5.604v-43.314h-5.479v-16.589h30.289v16.589h-5.478v43.314h5.478v16.949z" fill="#ffffff"/></g><g id="g3379" transform="translate(197.61 331.68)"><path id="path3381" d="m0 0h5.712v-43.314h-5.712v-16.589h30.414v16.589h-5.366v12.705h18.222v15.883h-18.222v14.726h15.917v-5.124h18.982v22.073h-59.947v-16.949z" fill="#ffffff"/></g><g id="g3383"><g id="g3385" fill="#ffffff" clip-path="url(#clipPath3387)"><g id="g3391" transform="translate(413.99 351.27)"><path id="path3393" d="m0 0c2.048 0 3.84 0.032 4.512 0.096 0-0.704 0-3.104 0.064-4.608-0.128-0.256-0.704-0.32-1.024-0.128-0.32 1.856-0.832 2.784-2.048 3.104-0.863 0.224-1.664 0.256-2.688 0.256h-1.631c-1.344 0-1.344-0.064-1.344-1.856v-5.728c0-0.8 0.031-0.864 0.767-0.864h1.888c2.784 0 3.264 0.064 3.584 1.409l0.256 1.088c0.192 0.223 0.8 0.223 0.96-0.033-0.032-0.832-0.096-2.015-0.096-3.199s0.064-2.336 0.096-3.328c-0.16-0.256-0.768-0.256-0.96-0.032l-0.256 1.248c-0.288 1.344-0.8 1.408-3.584 1.408h-1.888c-0.736 0-0.767-0.064-0.767-0.864v-4.48c0-3.392 0.288-3.424 1.792-3.616l1.344-0.16c0.223-0.224 0.191-0.799-0.065-0.928-2.048 0.064-3.487 0.096-4.895 0.096-1.409 0-2.848-0.032-4.32-0.096-0.256 0.129-0.288 0.704-0.064 0.928l0.704 0.096c1.504 0.192 1.792 0.288 1.792 3.68v11.903c0 3.392-0.288 3.488-1.792 3.712l-0.416 0.064c-0.224 0.224-0.192 0.8 0.064 0.928 1.119-0.064 2.56-0.096 3.968-0.096h6.047z" fill="#ffffff"/></g><g id="g3395" transform="translate(426.88 335.43)"><path id="path3397" d="m0 0c0-1.6 0.065-2.752 0.544-3.296 0.384-0.448 0.896-0.704 3.456-0.704 3.552 0 4.064 0.16 5.535 3.456 0.32 0.16 0.832 0.064 0.992-0.192-0.255-1.344-0.96-3.776-1.343-4.64-1.344 0.064-4.096 0.096-7.68 0.096h-3.327c-1.633 0-3.233-0.032-4.576-0.096-0.256 0.129-0.352 0.768-0.064 0.928l0.959 0.16c1.504 0.256 1.792 0.288 1.792 3.616v11.903c0 3.328-0.288 3.424-1.792 3.648l-0.895 0.128c-0.224 0.16-0.224 0.8 0.064 0.928 1.6-0.064 3.039-0.096 4.512-0.096 1.407 0 2.847 0.032 4.255 0.096 0.288-0.128 0.32-0.768 0.064-0.928l-0.704-0.128c-1.504-0.256-1.792-0.32-1.792-3.648v-11.231z" fill="#ffffff"/></g><g id="g3399" transform="translate(442.41 341.35)"><path id="path3401" d="m0 0c0-4.416 1.888-10.431 7.359-10.431 3.648 0 6.591 2.72 6.591 9.151 0 4.832-2.176 10.431-7.263 10.431-3.2 0-6.687-2.336-6.687-9.151m18.302-0.704c0-6.303-4.799-11.007-11.263-11.007-7.231 0-11.392 5.087-11.392 10.783 0 6.528 4.737 11.359 11.456 11.359 7.391 0 11.199-5.311 11.199-11.135" fill="#ffffff"/></g><g id="g3403" transform="translate(468.01 341.86)"><path id="path3405" d="m0 0c0-1.024 0-1.088 1.536-1.088 3.136 0 4.575 1.536 4.575 4.576 0 2.528-1.632 4.736-4.415 4.736-1.664 0-1.696-0.097-1.696-1.568v-6.656zm-3.712 4.608c0 3.072-0.031 3.455-1.535 3.616l-0.832 0.096c-0.225 0.223-0.225 0.736 0.031 0.895 2.017 0.193 4.736 0.288 7.36 0.288 2.496 0 4.671-0.319 6.08-1.088 1.631-0.863 2.815-2.367 2.815-4.671 0-2.944-2.272-4.416-3.839-5.056-0.192-0.096-0.129-0.352 0-0.543 2.56-4.32 4.159-7.04 5.663-8.288 0.896-0.768 1.824-0.96 2.208-0.992 0.16-0.128 0.16-0.48 0.064-0.64-0.384-0.096-0.992-0.192-2.112-0.192-3.072 0-4.735 1.248-6.687 4.224-0.864 1.344-1.76 3.103-2.529 4.351-0.575 0.96-0.927 1.088-1.983 1.088-0.96 0-0.992-0.032-0.992-0.703v-4.096c0-3.392 0.288-3.488 1.792-3.68l0.704-0.096c0.224-0.224 0.192-0.8-0.064-0.928-1.408 0.064-2.848 0.096-4.255 0.096-1.409 0-2.849-0.032-4.321-0.096-0.256 0.128-0.351 0.704-0.063 0.928l0.703 0.096c1.504 0.192 1.792 0.288 1.792 3.68v11.711z" fill="#ffffff"/></g><g id="g3407" transform="translate(489 334.76)"><path id="path3409" d="m0 0c0-3.392 0.288-3.488 1.792-3.68l0.704-0.096c0.224-0.224 0.192-0.8-0.064-0.928-1.408 0.064-2.848 0.096-4.255 0.096-1.408 0-2.912-0.032-4.32-0.096-0.256 0.128-0.289 0.704-0.064 0.928l0.703 0.096c1.504 0.192 1.792 0.288 1.792 3.68v11.903c0 3.391-0.288 3.488-1.792 3.68l-0.703 0.096c-0.225 0.224-0.192 0.8 0.064 0.928 1.408-0.064 2.847-0.096 4.32-0.096 1.407 0 2.847 0.032 4.255 0.096 0.256-0.128 0.288-0.704 0.064-0.928l-0.704-0.096c-1.504-0.192-1.792-0.289-1.792-3.68v-11.903z" fill="#ffffff"/></g><g id="g3411" transform="translate(500.33 336.01)"><path id="path3413" d="m0 0c0-3.104 0.224-4.768 3.615-4.768 5.696 0 8.256 4.032 8.256 9.44 0 6.335-3.68 9.407-9.023 9.407-1.344 0-2.369-0.256-2.592-0.448-0.225-0.192-0.256-0.864-0.256-2.368v-11.263zm-3.712 10.463c0 3.072-0.032 3.52-1.536 3.648l-0.672 0.064c-0.223 0.16-0.223 0.736 0.032 0.896 2.304 0.192 4.864 0.288 7.999 0.288 3.04 0 5.216-0.256 7.552-1.088 3.84-1.408 6.56-4.8 6.56-9.567 0-3.552-1.76-7.2-5.728-9.216-2.272-1.152-5.023-1.535-7.935-1.535-1.953 0-3.457 0.192-4.64 0.192-1.216 0-2.656-0.033-4.063-0.097-0.256 0.129-0.289 0.704-0.065 0.929l0.704 0.095c1.504 0.193 1.792 0.288 1.792 3.68v11.711z" fill="#ffffff"/></g><g id="g3415" transform="translate(526.79 339.43)"><path id="path3417" d="m0 0c0.896 0 1.024 0.064 0.768 0.832l-1.343 3.84c-0.576 1.696-0.737 2.304-0.897 2.528h-0.063c-0.128-0.224-0.416-1.024-0.96-2.528l-1.344-3.744c-0.32-0.928-0.257-0.928 0.512-0.928h3.327zm-3.839-1.44c-0.832 0-0.801 0-1.089-0.864l-1.311-3.84c-0.64-1.887-0.512-1.951 0.672-2.144l0.927-0.159c0.225-0.224 0.193-0.8-0.063-0.929-1.025 0.064-2.08 0.064-3.392 0.097-1.056 0-2.048-0.033-3.168-0.097-0.223 0.161-0.256 0.641-0.032 0.929l0.96 0.159c0.928 0.161 1.28 0.416 1.76 1.473 0.384 0.832 0.896 2.175 1.568 3.903l4.384 11.391c0.384 1.024 0.703 1.792 0.607 2.336 1.12 0.224 2.176 1.536 2.241 1.536 0.255 0 0.416-0.096 0.543-0.256 0.512-1.44 0.928-2.944 1.44-4.384l4.607-13.407c0.737-2.143 0.897-2.335 2.529-2.656l0.479-0.095c0.257-0.224 0.257-0.768 0.032-0.929-1.311 0.064-2.496 0.097-4.159 0.097-1.376 0-2.784-0.064-3.904-0.097-0.256 0.161-0.288 0.737-0.096 0.929l0.704 0.095c1.152 0.161 1.312 0.352 0.832 1.697l-1.504 4.351c-0.288 0.864-0.416 0.864-1.312 0.864h-4.255z" fill="#ffffff"/></g><g id="g3419" transform="translate(409.83 304.36)"><path id="path3421" d="m0 0c0-3.392 0.288-3.487 1.792-3.681l0.703-0.095c0.225-0.224 0.193-0.799-0.063-0.928-1.409 0.064-2.848 0.096-4.256 0.096s-2.912-0.032-4.32-0.096c-0.255 0.129-0.288 0.704-0.064 0.928l0.704 0.095c1.504 0.194 1.792 0.289 1.792 3.681v11.903c0 3.391-0.288 3.488-1.792 3.679l-0.704 0.097c-0.224 0.224-0.191 0.799 0.064 0.927 1.408-0.064 2.848-0.095 4.32-0.095 1.408 0 2.847 0.031 4.256 0.095 0.256-0.128 0.288-0.703 0.063-0.927l-0.703-0.097c-1.504-0.191-1.792-0.288-1.792-3.679v-11.903z" fill="#ffffff"/></g><g id="g3423" transform="translate(435.04 305.19)"><path id="path3425" d="m0 0c0-0.959 0-4.895 0.097-5.631-0.256-0.352-0.704-0.481-1.088-0.448-0.513 0.672-1.441 1.76-3.744 4.383l-7.488 8.544c-2.048 2.367-3.103 3.552-3.647 4.031-0.097 0-0.097-0.352-0.097-2.047v-6.24c0-2.4 0.032-5.343 0.576-6.303 0.288-0.481 0.832-0.704 1.632-0.801l0.704-0.096c0.288-0.223 0.256-0.832-0.063-0.928-1.185 0.065-2.433 0.096-3.649 0.096-1.343 0-2.208-0.031-3.327-0.096-0.256 0.161-0.32 0.705-0.064 0.928l0.704 0.16c0.608 0.129 1.183 0.225 1.408 0.737 0.416 0.992 0.416 3.775 0.416 6.303v7.583c0 2.496 0.031 3.008-1.056 3.936-0.352 0.288-1.249 0.544-1.696 0.64l-0.48 0.096c-0.224 0.192-0.192 0.832 0.128 0.928 1.216-0.128 2.976-0.096 3.776-0.096 0.672 0 1.44 0.032 2.208 0.096 0.544-1.376 4.031-5.408 5.151-6.624l3.2-3.455c1.343-1.472 4.32-4.864 4.639-5.056 0.097 0.096 0.097 0.256 0.097 0.768v6.24c0 2.399-0.032 5.343-0.608 6.303-0.289 0.48-0.8 0.704-1.6 0.8l-0.736 0.096c-0.289 0.224-0.256 0.832 0.064 0.928 1.248-0.064 2.432-0.096 3.68-0.096 1.376 0 2.208 0.032 3.359 0.096 0.256-0.16 0.32-0.704 0.065-0.928l-0.737-0.16c-0.607-0.128-1.151-0.224-1.376-0.736-0.448-0.992-0.448-3.776-0.448-6.303v-7.648z" fill="#ffffff"/></g><g id="g3427" transform="translate(447.11 318.18)"><path id="path3429" d="m0 0c0 1.344-0.032 1.408-0.864 1.408h-1.792c-2.944 0-3.808-0.352-4.992-2.944-0.224-0.192-0.896-0.096-1.024 0.224 0.544 1.728 1.024 3.712 1.248 4.832 0.065 0.096 0.193 0.128 0.353 0.128 0.128 0 0.256-0.032 0.319-0.128 0.16-0.8 0.608-0.832 2.784-0.832h13.055c1.568 0 2.048 0.096 2.432 0.832 0.127 0.063 0.255 0.128 0.384 0.128 0.192 0 0.352-0.065 0.415-0.16-0.319-1.312-0.575-4.064-0.479-5.088-0.16-0.256-0.704-0.32-0.992-0.096-0.416 2.496-1.024 3.104-4.448 3.104h-1.824c-0.832 0-0.863-0.064-0.863-1.408v-13.823c0-3.391 0.287-3.487 1.791-3.647l1.152-0.129c0.224-0.224 0.193-0.799-0.064-0.928-1.856 0.065-3.295 0.096-4.703 0.096-1.409 0-2.912-0.031-4.96-0.096-0.256 0.129-0.288 0.768-0.064 0.928l1.344 0.16c1.504 0.192 1.792 0.225 1.792 3.616v13.823z" fill="#ffffff"/></g><g id="g3431" transform="translate(462.95 316.26)"><path id="path3433" d="m0 0c0 3.392-0.288 3.52-1.792 3.712l-0.512 0.064c-0.224 0.224-0.192 0.8 0.064 0.928 1.216-0.064 2.719-0.096 4.128-0.096h6.111c2.048 0 3.904 0.032 4.32 0.096 0.128-0.544 0.32-3.072 0.512-4.448-0.128-0.256-0.767-0.32-1.024-0.128-0.512 1.856-0.992 2.624-2.016 2.912-0.735 0.192-1.695 0.288-2.56 0.288h-2.143c-1.376 0-1.376-0.064-1.376-1.888v-5.408c0-0.832 0.031-0.864 0.767-0.864h1.537c2.783 0 3.263 0.032 3.551 1.408l0.224 1.088c0.256 0.224 0.864 0.224 1.024-0.032-0.032-0.864-0.096-2.016-0.096-3.199 0-1.217 0.064-2.336 0.096-3.36-0.16-0.224-0.768-0.224-1.024-0.032l-0.224 1.28c-0.224 1.344-0.768 1.407-3.551 1.407h-1.537c-0.736 0-0.767-0.063-0.767-0.863v-4.064c0-1.633 0.063-2.784 0.544-3.328 0.384-0.448 0.928-0.672 3.615-0.704 4.064-0.032 4.768 0.864 5.888 3.456 0.288 0.224 0.832 0.128 1.024-0.192-0.192-1.344-0.896-3.776-1.344-4.64-1.408 0.065-4.16 0.096-7.904 0.096h-3.647c-1.409 0-3.36-0.031-4.8-0.096-0.256 0.129-0.288 0.704-0.064 0.928l1.184 0.129c1.504 0.16 1.792 0.256 1.792 3.647v11.903z" fill="#ffffff"/></g><g id="g3435" transform="translate(484.58 311.46)"><path id="path3437" d="m0 0c0-1.024 0-1.088 1.536-1.088 3.136 0 4.575 1.536 4.575 4.576 0 2.528-1.632 4.736-4.415 4.736-1.664 0-1.696-0.096-1.696-1.568v-6.656zm-3.712 4.608c0 3.072-0.031 3.456-1.535 3.616l-0.832 0.096c-0.225 0.223-0.225 0.736 0.031 0.895 2.017 0.193 4.736 0.288 7.36 0.288 2.496 0 4.671-0.319 6.08-1.087 1.631-0.864 2.815-2.368 2.815-4.672 0-2.944-2.271-4.416-3.839-5.055-0.192-0.097-0.129-0.353 0-0.544 2.56-4.32 4.159-7.04 5.663-8.288 0.896-0.768 1.824-0.96 2.208-0.992 0.16-0.128 0.16-0.48 0.064-0.64-0.384-0.097-0.992-0.192-2.112-0.192-3.072 0-4.735 1.248-6.687 4.224-0.864 1.344-1.76 3.103-2.528 4.351-0.576 0.96-0.928 1.088-1.984 1.088-0.96 0-0.992-0.031-0.992-0.703v-4.096c0-3.392 0.288-3.487 1.792-3.681l0.704-0.095c0.224-0.224 0.191-0.799-0.064-0.928-1.408 0.064-2.848 0.096-4.255 0.096-1.408 0-2.849-0.032-4.321-0.096-0.255 0.129-0.351 0.704-0.063 0.928l0.703 0.095c1.504 0.194 1.792 0.289 1.792 3.681v11.711z" fill="#ffffff"/></g><g id="g3439" transform="translate(519.46 305.19)"><path id="path3441" d="m0 0c0-0.959 0-4.895 0.096-5.631-0.256-0.352-0.704-0.481-1.088-0.448-0.512 0.672-1.44 1.76-3.743 4.383l-7.489 8.544c-2.047 2.367-3.103 3.552-3.647 4.031-0.096 0-0.096-0.352-0.096-2.047v-6.24c0-2.4 0.032-5.343 0.576-6.303 0.288-0.481 0.832-0.704 1.632-0.801l0.704-0.096c0.287-0.223 0.256-0.832-0.064-0.928-1.184 0.065-2.432 0.096-3.648 0.096-1.343 0-2.208-0.031-3.328-0.096-0.256 0.161-0.32 0.705-0.063 0.928l0.703 0.16c0.608 0.129 1.185 0.225 1.408 0.737 0.416 0.992 0.416 3.775 0.416 6.303v7.583c0 2.496 0.032 3.008-1.056 3.936-0.352 0.288-1.248 0.544-1.696 0.64l-0.479 0.096c-0.225 0.192-0.193 0.832 0.128 0.928 1.215-0.128 2.975-0.096 3.775-0.096 0.672 0 1.44 0.032 2.208 0.096 0.544-1.376 4.031-5.408 5.151-6.624l3.201-3.455c1.343-1.472 4.319-4.864 4.639-5.056 0.096 0.096 0.096 0.256 0.096 0.768v6.24c0 2.399-0.032 5.343-0.607 6.303-0.289 0.48-0.801 0.704-1.601 0.8l-0.735 0.096c-0.289 0.224-0.256 0.832 0.063 0.928 1.248-0.064 2.432-0.096 3.68-0.096 1.376 0 2.208 0.032 3.36 0.096 0.256-0.16 0.319-0.704 0.064-0.928l-0.736-0.16c-0.608-0.128-1.152-0.224-1.376-0.736-0.448-0.992-0.448-3.776-0.448-6.303v-7.648z" fill="#ffffff"/></g><g id="g3443" transform="translate(532.84 309.03)"><path id="path3445" d="m0 0c0.896 0 1.024 0.064 0.769 0.832l-1.344 3.84c-0.576 1.696-0.737 2.304-0.897 2.528h-0.063c-0.128-0.224-0.416-1.024-0.96-2.528l-1.344-3.744c-0.32-0.928-0.257-0.928 0.512-0.928h3.327zm-3.839-1.44c-0.832 0-0.801 0-1.089-0.864l-1.311-3.839c-0.64-1.889-0.512-1.952 0.672-2.145l0.927-0.16c0.225-0.223 0.193-0.799-0.063-0.927-1.024 0.064-2.08 0.064-3.392 0.095-1.056 0-2.048-0.031-3.168-0.095-0.223 0.16-0.256 0.64-0.032 0.927l0.96 0.16c0.928 0.16 1.28 0.416 1.76 1.473 0.384 0.832 0.896 2.176 1.568 3.903l4.384 11.391c0.384 1.024 0.703 1.793 0.607 2.336 1.12 0.224 2.176 1.536 2.241 1.536 0.255 0 0.416-0.096 0.544-0.256 0.511-1.44 0.927-2.944 1.439-4.384l4.607-13.407c0.737-2.143 0.897-2.336 2.529-2.656l0.479-0.096c0.257-0.223 0.257-0.767 0.032-0.927-1.311 0.064-2.496 0.095-4.159 0.095-1.376 0-2.784-0.063-3.904-0.095-0.256 0.16-0.288 0.736-0.096 0.927l0.704 0.096c1.152 0.16 1.312 0.353 0.832 1.697l-1.503 4.351c-0.289 0.864-0.417 0.864-1.313 0.864h-4.255z" fill="#ffffff"/></g><g id="g3447" transform="translate(548.27 318.18)"><path id="path3449" d="m0 0c0 1.344-0.032 1.408-0.864 1.408h-1.792c-2.944 0-3.808-0.352-4.992-2.944-0.224-0.192-0.896-0.096-1.024 0.224 0.544 1.728 1.024 3.712 1.248 4.832 0.065 0.096 0.192 0.128 0.353 0.128 0.128 0 0.255-0.032 0.319-0.128 0.16-0.8 0.608-0.832 2.784-0.832h13.055c1.568 0 2.048 0.096 2.432 0.832 0.128 0.063 0.256 0.128 0.384 0.128 0.192 0 0.352-0.065 0.416-0.16-0.32-1.312-0.576-4.064-0.48-5.088-0.16-0.256-0.704-0.32-0.991-0.096-0.416 2.496-1.025 3.104-4.449 3.104h-1.824c-0.831 0-0.863-0.064-0.863-1.408v-13.823c0-3.391 0.288-3.487 1.792-3.647l1.151-0.129c0.225-0.224 0.193-0.799-0.063-0.928-1.857 0.065-3.296 0.096-4.704 0.096-1.409 0-2.913-0.031-4.96-0.096-0.256 0.129-0.287 0.768-0.064 0.928l1.344 0.16c1.504 0.192 1.792 0.225 1.792 3.616v13.823z" fill="#ffffff"/></g><g id="g3451" transform="translate(567.79 304.36)"><path id="path3453" d="m0 0c0-3.392 0.288-3.487 1.792-3.681l0.704-0.095c0.224-0.224 0.192-0.799-0.064-0.928-1.409 0.064-2.848 0.096-4.256 0.096-1.407 0-2.911-0.032-4.32-0.096-0.255 0.129-0.288 0.704-0.064 0.928l0.704 0.095c1.504 0.194 1.792 0.289 1.792 3.681v11.903c0 3.391-0.288 3.488-1.792 3.679l-0.704 0.097c-0.224 0.224-0.191 0.799 0.064 0.927 1.409-0.064 2.848-0.095 4.32-0.095 1.408 0 2.847 0.031 4.256 0.095 0.256-0.128 0.288-0.703 0.064-0.927l-0.704-0.097c-1.504-0.191-1.792-0.288-1.792-3.679v-11.903z" fill="#ffffff"/></g><g id="g3455" transform="translate(576.62 310.95)"><path id="path3457" d="m0 0c0-4.415 1.888-10.431 7.359-10.431 3.649 0 6.592 2.72 6.592 9.151 0 4.832-2.176 10.431-7.264 10.431-3.199 0-6.687-2.336-6.687-9.151m18.303-0.704c0-6.303-4.8-11.007-11.263-11.007-7.231 0-11.392 5.088-11.392 10.783 0 6.528 4.736 11.359 11.456 11.359 7.391 0 11.199-5.311 11.199-11.135" fill="#ffffff"/></g><g id="g3459" transform="translate(615.76 305.19)"><path id="path3461" d="m0 0c0-0.959 0-4.895 0.096-5.631-0.256-0.352-0.703-0.481-1.088-0.448-0.512 0.672-1.44 1.76-3.743 4.383l-7.488 8.544c-2.048 2.367-3.104 3.552-3.648 4.031-0.096 0-0.096-0.352-0.096-2.047v-6.24c0-2.4 0.032-5.343 0.576-6.303 0.288-0.481 0.832-0.704 1.632-0.801l0.704-0.096c0.288-0.223 0.256-0.832-0.064-0.928-1.184 0.065-2.432 0.096-3.648 0.096-1.343 0-2.208-0.031-3.328-0.096-0.256 0.161-0.319 0.705-0.063 0.928l0.704 0.16c0.607 0.129 1.183 0.225 1.407 0.737 0.416 0.992 0.416 3.775 0.416 6.303v7.583c0 2.496 0.032 3.008-1.056 3.936-0.351 0.288-1.248 0.544-1.696 0.64l-0.479 0.096c-0.224 0.192-0.193 0.832 0.128 0.928 1.215-0.128 2.975-0.096 3.775-0.096 0.672 0 1.44 0.032 2.208 0.096 0.544-1.376 4.032-5.408 5.152-6.624l3.2-3.455c1.343-1.472 4.319-4.864 4.639-5.056 0.096 0.096 0.096 0.256 0.096 0.768v6.24c0 2.399-0.031 5.343-0.608 6.303-0.288 0.48-0.799 0.704-1.599 0.8l-0.736 0.096c-0.289 0.224-0.256 0.832 0.063 0.928 1.248-0.064 2.433-0.096 3.681-0.096 1.375 0 2.207 0.032 3.359 0.096 0.256-0.16 0.32-0.704 0.064-0.928l-0.736-0.16c-0.608-0.128-1.152-0.224-1.376-0.736-0.448-0.992-0.448-3.776-0.448-6.303v-7.648z" fill="#ffffff"/></g><g id="g3463" transform="translate(628.85 309.03)"><path id="path3465" d="m0 0c0.896 0 1.024 0.064 0.769 0.832l-1.345 3.84c-0.575 1.696-0.735 2.304-0.896 2.528h-0.064c-0.128-0.224-0.416-1.024-0.96-2.528l-1.344-3.744c-0.319-0.928-0.256-0.928 0.513-0.928h3.327zm-3.84-1.44c-0.832 0-0.8 0-1.088-0.864l-1.311-3.839c-0.64-1.889-0.512-1.952 0.672-2.145l0.927-0.16c0.224-0.223 0.193-0.799-0.063-0.927-1.024 0.064-2.08 0.064-3.393 0.095-1.055 0-2.047-0.031-3.167-0.095-0.224 0.16-0.255 0.64-0.032 0.927l0.96 0.16c0.928 0.16 1.279 0.416 1.76 1.473 0.384 0.832 0.895 2.176 1.567 3.903l4.384 11.391c0.385 1.024 0.704 1.793 0.608 2.336 1.12 0.224 2.176 1.536 2.24 1.536 0.257 0 0.416-0.096 0.545-0.256 0.511-1.44 0.927-2.944 1.439-4.384l4.607-13.407c0.737-2.143 0.897-2.336 2.529-2.656l0.479-0.096c0.256-0.223 0.256-0.767 0.033-0.927-1.312 0.064-2.497 0.095-4.161 0.095-1.376 0-2.783-0.063-3.903-0.095-0.256 0.16-0.288 0.736-0.096 0.927l0.704 0.096c1.152 0.16 1.312 0.353 0.832 1.697l-1.504 4.351c-0.288 0.864-0.416 0.864-1.312 0.864h-4.256z" fill="#ffffff"/></g><g id="g3467" transform="translate(645.94 305.03)"><path id="path3469" d="m0 0c0-1.601 0.064-2.752 0.544-3.296 0.384-0.448 0.895-0.704 3.456-0.704 3.552 0 4.064 0.16 5.535 3.456 0.32 0.16 0.832 0.064 0.992-0.192-0.255-1.344-0.96-3.776-1.343-4.64-1.345 0.064-4.096 0.096-7.68 0.096h-3.328c-1.632 0-3.232-0.032-4.575-0.096-0.256 0.129-0.353 0.768-0.065 0.928l0.96 0.16c1.504 0.256 1.792 0.288 1.792 3.616v11.903c0 3.328-0.288 3.424-1.792 3.648l-0.895 0.128c-0.225 0.159-0.225 0.8 0.063 0.927 1.601-0.063 3.04-0.095 4.512-0.095 1.408 0 2.847 0.032 4.256 0.095 0.288-0.127 0.32-0.768 0.064-0.927l-0.704-0.128c-1.504-0.257-1.792-0.32-1.792-3.648v-11.231z" fill="#ffffff"/></g><g id="g3471" transform="translate(405.92 285.86)"><path id="path3473" d="m0 0c0 3.391-0.288 3.455-1.792 3.711l-0.544 0.096c-0.224 0.224-0.191 0.768 0.064 0.896 1.281-0.064 2.72-0.096 4.128-0.096 1.44 0 2.88 0.032 4.287 0.096 0.256-0.128 0.289-0.672 0.065-0.896l-0.704-0.096c-1.504-0.192-1.792-0.32-1.792-3.711v-7.328c0-4.416 1.344-8.127 5.792-8.127 4.191 0 5.919 3.168 5.919 8.031v4c0 2.4-0.031 5.375-0.608 6.303-0.288 0.48-0.799 0.705-1.6 0.832l-0.64 0.096c-0.288 0.224-0.256 0.8 0.065 0.896 1.087-0.064 2.303-0.096 3.551-0.096 1.344 0 2.208 0.032 3.392 0.096 0.256-0.16 0.319-0.672 0.063-0.896l-0.703-0.16c-0.608-0.128-1.184-0.256-1.408-0.768-0.448-0.959-0.448-3.776-0.448-6.303v-3.808c0-2.912-0.448-5.6-2.111-7.391-1.665-1.792-4.065-2.401-6.272-2.401-3.008 0-5.12 0.641-6.592 2.048-1.44 1.376-2.112 3.617-2.112 6.848v8.128z" fill="#ffffff"/></g><g id="g3475" transform="translate(447.52 274.79)"><path id="path3477" d="m0 0c0-0.959 0-4.895 0.096-5.631-0.256-0.351-0.704-0.48-1.088-0.448-0.512 0.673-1.44 1.761-3.743 4.384l-7.489 8.543c-2.047 2.368-3.103 3.552-3.647 4.032-0.096 0-0.096-0.353-0.096-2.048v-6.24c0-2.4 0.032-5.343 0.576-6.303 0.288-0.48 0.832-0.704 1.632-0.801l0.704-0.095c0.287-0.224 0.256-0.832-0.064-0.928-1.184 0.064-2.432 0.096-3.648 0.096-1.343 0-2.208-0.032-3.328-0.096-0.256 0.16-0.32 0.704-0.063 0.928l0.703 0.16c0.608 0.129 1.185 0.224 1.408 0.736 0.416 0.992 0.416 3.776 0.416 6.303v7.584c0 2.496 0.032 3.008-1.056 3.935-0.352 0.288-1.248 0.545-1.696 0.641l-0.479 0.096c-0.225 0.191-0.193 0.832 0.128 0.927 1.215-0.127 2.975-0.095 3.775-0.095 0.672 0 1.44 0.031 2.208 0.095 0.544-1.376 4.031-5.408 5.151-6.623l3.2-3.456c1.344-1.471 4.32-4.864 4.64-5.055 0.096 0.095 0.096 0.256 0.096 0.767v6.24c0 2.4-0.032 5.344-0.607 6.303-0.289 0.481-0.801 0.705-1.601 0.801l-0.735 0.096c-0.288 0.224-0.256 0.832 0.063 0.927 1.248-0.064 2.432-0.095 3.68-0.095 1.376 0 2.208 0.031 3.36 0.095 0.256-0.16 0.319-0.703 0.064-0.927l-0.736-0.16c-0.608-0.128-1.152-0.225-1.376-0.737-0.448-0.992-0.448-3.775-0.448-6.303v-7.648z" fill="#ffffff"/></g><g id="g3479" transform="translate(458.6 273.96)"><path id="path3481" d="m0 0c0-3.392 0.288-3.487 1.792-3.681l0.703-0.095c0.225-0.224 0.193-0.799-0.063-0.928-1.409 0.064-2.848 0.096-4.256 0.096s-2.912-0.032-4.32-0.096c-0.256 0.129-0.288 0.704-0.064 0.928l0.704 0.095c1.504 0.194 1.792 0.289 1.792 3.681v11.903c0 3.391-0.288 3.488-1.792 3.68l-0.704 0.096c-0.224 0.224-0.192 0.8 0.064 0.927 1.408-0.064 2.848-0.095 4.32-0.095 1.408 0 2.847 0.031 4.256 0.095 0.256-0.127 0.288-0.703 0.063-0.927l-0.703-0.096c-1.504-0.192-1.792-0.289-1.792-3.68v-11.903z" fill="#ffffff"/></g><g id="g3483" transform="translate(476.77 277.28)"><path id="path3485" d="m0 0c-1.311-2.912-2.784-6.655-3.328-8.287-0.064-0.096-0.319-0.16-0.544-0.16-0.224 0-0.447 0.064-0.607 0.16-0.384 1.279-0.897 2.848-1.472 4.191l-5.6 13.471c-0.896 2.145-1.184 2.592-2.464 2.849l-0.768 0.159c-0.224 0.224-0.224 0.801 0.097 0.896 1.247-0.064 2.623-0.095 3.871-0.095 1.44 0 2.528 0.031 4.223 0.095 0.288-0.191 0.321-0.703 0.033-0.927l-0.8-0.192c-0.704-0.16-0.96-0.32-0.96-0.576 0-0.289 0.256-0.992 1.567-4.256l2.305-5.695c0.575-1.441 1.439-3.328 1.759-4.065 1.728 4.032 3.648 8.448 5.344 12.799 0.512 1.28 0.416 1.536-0.544 1.76l-0.928 0.225c-0.224 0.255-0.192 0.767 0.064 0.927 1.312-0.064 2.4-0.095 3.424-0.095 1.151 0 2.208 0.031 3.103 0.095 0.256-0.16 0.224-0.672 0.065-0.927l-0.801-0.161c-0.735-0.16-1.439-0.383-1.983-1.312-0.896-1.535-1.792-3.68-3.264-6.91l-1.792-3.969z" fill="#ffffff"/></g><g id="g3487" transform="translate(487.66 285.86)"><path id="path3489" d="m0 0c0 3.391-0.288 3.519-1.792 3.711l-0.512 0.064c-0.223 0.225-0.191 0.8 0.065 0.928 1.215-0.064 2.719-0.096 4.128-0.096h6.111c2.048 0 3.903 0.032 4.319 0.096 0.128-0.544 0.321-3.072 0.512-4.447-0.128-0.256-0.768-0.321-1.023-0.129-0.512 1.856-0.993 2.625-2.016 2.912-0.736 0.192-1.696 0.288-2.561 0.288h-2.143c-1.376 0-1.376-0.063-1.376-1.888v-5.408c0-0.832 0.032-0.863 0.768-0.863h1.536c2.784 0 3.263 0.031 3.551 1.408l0.225 1.088c0.256 0.224 0.863 0.224 1.023-0.032-0.032-0.864-0.095-2.017-0.095-3.2 0-1.216 0.063-2.336 0.095-3.36-0.16-0.224-0.767-0.224-1.023-0.032l-0.225 1.28c-0.223 1.344-0.767 1.408-3.551 1.408h-1.536c-0.736 0-0.768-0.064-0.768-0.864v-4.063c0-1.633 0.064-2.784 0.544-3.328 0.384-0.449 0.928-0.672 3.616-0.705 4.063-0.032 4.768 0.865 5.888 3.457 0.287 0.223 0.831 0.127 1.023-0.193-0.192-1.344-0.895-3.775-1.344-4.639-1.408 0.064-4.16 0.095-7.903 0.095h-3.647c-1.409 0-3.361-0.031-4.8-0.095-0.256 0.128-0.288 0.704-0.065 0.927l1.184 0.129c1.504 0.16 1.792 0.256 1.792 3.648v11.903z" fill="#ffffff"/></g><g id="g3491" transform="translate(510.57 281.06)"><path id="path3493" d="m0 0c0-1.023 0-1.088 1.536-1.088 3.136 0 4.575 1.537 4.575 4.576 0 2.528-1.631 4.737-4.415 4.737-1.664 0-1.696-0.097-1.696-1.569v-6.656zm-3.712 4.608c0 3.072-0.031 3.456-1.535 3.617l-0.832 0.095c-0.225 0.224-0.225 0.737 0.031 0.896 2.017 0.192 4.736 0.288 7.36 0.288 2.496 0 4.671-0.32 6.08-1.088 1.631-0.863 2.815-2.367 2.815-4.672 0-2.943-2.271-4.416-3.839-5.055-0.192-0.096-0.129-0.352 0-0.544 2.56-4.32 4.159-7.04 5.663-8.288 0.896-0.767 1.824-0.96 2.208-0.992 0.16-0.128 0.16-0.479 0.064-0.639-0.384-0.097-0.992-0.193-2.112-0.193-3.072 0-4.735 1.248-6.687 4.225-0.864 1.344-1.76 3.103-2.529 4.351-0.575 0.959-0.927 1.088-1.983 1.088-0.96 0-0.992-0.032-0.992-0.704v-4.096c0-3.391 0.288-3.487 1.792-3.68l0.704-0.096c0.224-0.224 0.191-0.799-0.064-0.928-1.408 0.065-2.848 0.096-4.255 0.096-1.409 0-2.849-0.031-4.321-0.096-0.256 0.129-0.351 0.704-0.063 0.928l0.703 0.096c1.504 0.193 1.792 0.289 1.792 3.68v11.711z" fill="#ffffff"/></g><g id="g3495" transform="translate(526.19 270.18)"><path id="path3497" d="m0 0c-0.576 0.672-0.992 2.881-0.96 4.864 0.192 0.32 0.736 0.352 0.992 0.128 0.576-1.632 2.304-5.056 5.44-5.056 2.431 0 3.807 1.472 3.807 3.424 0 1.824-0.864 3.296-3.263 4.64l-1.376 0.768c-2.4 1.343-4.512 3.296-4.512 6.175 0 3.168 2.368 5.856 7.04 5.856 1.663 0 2.879-0.384 4.383-0.672 0.352-0.704 0.673-2.816 0.673-4.32-0.16-0.287-0.737-0.32-1.025-0.096-0.479 1.664-1.599 3.809-4.319 3.809-2.561 0-3.616-1.665-3.616-3.361 0-1.344 0.927-2.784 3.04-3.903l1.983-1.057c2.08-1.088 4.384-3.071 4.384-6.302 0-3.649-2.783-6.241-7.423-6.241-2.944 0-4.608 0.96-5.248 1.344" fill="#ffffff"/></g><g id="g3499" transform="translate(547.69 273.96)"><path id="path3501" d="m0 0c0-3.392 0.288-3.487 1.792-3.681l0.704-0.095c0.225-0.224 0.192-0.799-0.063-0.928-1.409 0.064-2.849 0.096-4.256 0.096-1.408 0-2.912-0.032-4.32-0.096-0.256 0.129-0.289 0.704-0.064 0.928l0.703 0.095c1.505 0.194 1.793 0.289 1.793 3.681v11.903c0 3.391-0.288 3.488-1.793 3.68l-0.703 0.096c-0.225 0.224-0.192 0.8 0.064 0.927 1.408-0.064 2.848-0.095 4.32-0.095 1.407 0 2.847 0.031 4.256 0.095 0.255-0.127 0.288-0.703 0.063-0.927l-0.704-0.096c-1.504-0.192-1.792-0.289-1.792-3.68v-11.903z" fill="#ffffff"/></g><g id="g3503" transform="translate(560.65 287.78)"><path id="path3505" d="m0 0c0 1.344-0.032 1.407-0.864 1.407h-1.792c-2.944 0-3.808-0.351-4.991-2.943-0.224-0.193-0.896-0.097-1.025 0.224 0.545 1.728 1.025 3.711 1.248 4.832 0.065 0.095 0.193 0.127 0.353 0.127 0.128 0 0.256-0.032 0.319-0.127 0.16-0.801 0.609-0.832 2.784-0.832h13.055c1.568 0 2.048 0.095 2.433 0.832 0.128 0.063 0.255 0.127 0.383 0.127 0.192 0 0.352-0.064 0.416-0.16-0.32-1.311-0.576-4.063-0.48-5.088-0.16-0.255-0.704-0.319-0.991-0.095-0.416 2.495-1.025 3.103-4.449 3.103h-1.824c-0.831 0-0.863-0.063-0.863-1.407v-13.823c0-3.392 0.288-3.488 1.792-3.648l1.151-0.129c0.225-0.223 0.193-0.798-0.063-0.927-1.857 0.064-3.296 0.095-4.704 0.095-1.409 0-2.912-0.031-4.96-0.095-0.256 0.129-0.287 0.767-0.064 0.927l1.344 0.16c1.504 0.193 1.792 0.225 1.792 3.617v13.823z" fill="#ffffff"/></g><g id="g3507" transform="translate(581.42 275.84)"><path id="path3509" d="m0 0c0 1.792-0.16 2.271-1.024 3.968l-3.84 7.583c-0.704 1.376-0.96 1.728-2.4 2.049l-0.832 0.191c-0.192 0.225-0.128 0.832 0.128 0.928 1.376-0.065 2.72-0.096 4.032-0.096 1.408 0 3.36 0.031 4.095 0.096 0.256-0.128 0.32-0.703 0.065-0.928l-0.96-0.16c-0.512-0.096-0.672-0.16-0.672-0.416s0.096-0.608 0.576-1.664c1.247-2.752 2.432-5.344 3.711-7.68 1.312 2.433 2.496 4.672 3.744 7.072 0.544 1.088 0.864 1.791 0.864 2.144 0 0.319-0.288 0.416-0.736 0.479l-0.96 0.225c-0.224 0.225-0.224 0.768 0.096 0.928 1.408-0.065 2.4-0.096 3.36-0.096 0.992 0 2.016 0.031 3.04 0.096 0.287-0.16 0.287-0.672 0.064-0.928l-0.928-0.191c-1.441-0.289-1.824-0.866-3.488-3.68-1.088-1.824-2.048-3.584-3.039-5.377-0.961-1.663-1.185-2.335-1.185-4.512v-1.919c0-3.391 0.288-3.487 1.856-3.647l1.216-0.129c0.224-0.224 0.192-0.799-0.064-0.928-1.984 0.065-3.424 0.096-4.831 0.096-1.473 0-2.912-0.031-4.64-0.096-0.256 0.129-0.288 0.704-0.064 0.928l1.024 0.129c1.504 0.191 1.792 0.256 1.792 3.647v1.888z" fill="#ffffff"/></g></g></g></g></g></g></svg>
