<?xml version="1.0" encoding="UTF-8" standalone="no"?>
<!-- Created with Inkscape (http://www.inkscape.org/) -->

<svg
   xmlns:dc="http://purl.org/dc/elements/1.1/"
   xmlns:cc="http://creativecommons.org/ns#"
   xmlns:rdf="http://www.w3.org/1999/02/22-rdf-syntax-ns#"
   xmlns:svg="http://www.w3.org/2000/svg"
   xmlns="http://www.w3.org/2000/svg"
   version="1.1"
   width="299.99744"
   height="41.146004"
   id="svg2"
   xml:space="preserve"><metadata
     id="metadata8"><rdf:RDF><cc:Work
         rdf:about=""><dc:format>image/svg+xml</dc:format><dc:type
           rdf:resource="http://purl.org/dc/dcmitype/StillImage" /><dc:title></dc:title></cc:Work></rdf:RDF></metadata><defs
     id="defs6"><clipPath
       id="clipPath16"><path
         d="M 0,0 792,0 792,612 0,612 0,0 z"
         id="path18" /></clipPath><clipPath
       id="clipPath30"><path
         d="M 0,0 792,0 792,612 0,612 0,0 z"
         id="path32" /></clipPath><clipPath
       id="clipPath58"><path
         d="M 0,0 792,0 792,612 0,612 0,0 z"
         id="path60" /></clipPath><clipPath
       id="clipPath74"><path
         d="M 0,0 792,0 792,612 0,612 0,0 z"
         id="path76" /></clipPath><clipPath
       id="clipPath104"><path
         d="M 0,0 792,0 792,612 0,612 0,0 z"
         id="path106" /></clipPath><clipPath
       id="clipPath130"><path
         d="M 0,0 792,0 792,612 0,612 0,0 z"
         id="path132" /></clipPath></defs><g
     transform="matrix(1.25,0,0,-1.25,-346.79907,675.08314)"
     id="g10"><g
       transform="matrix(0.4843291,0,0,0.4843291,325.86412,256.24966)"
       id="g4096"><g
         transform="translate(350.8632,567.1119)"
         id="g158"><path
           d="m 0,0 c -0.26,-1.987 -0.565,-8.07 2.979,-12.836 3.291,-4.429 7.267,-6.359 7.908,-11.947 0.108,-0.966 0.101,-1.892 -0.128,-2.565 -7.438,4.627 -11.708,11.069 -11.708,20.519 0,2.471 0.333,4.657 0.949,6.829"
           id="path160"
           style="fill:#ffffff;fill-opacity:1;fill-rule:nonzero;stroke:none" /></g><g
         transform="translate(363.8093,582.124)"
         id="g162"><path
           d="m 0,0 c -1.634,-1.023 -3.415,-3.175 -4.028,-4.33 -8.417,-15.867 8.659,-22.631 8.065,-33.541 -0.111,-2.08 -0.574,-4.466 -1.771,-6.442 0,0 -2.122,0.684 -3.039,1.234 0.963,2.75 1.016,4.531 0.242,7.177 -1.592,5.426 -9.395,11.315 -9.533,19.603 C -10.173,-9.838 -6.785,-2.697 0,0"
           id="path164"
           style="fill:#ffffff;fill-opacity:1;fill-rule:nonzero;stroke:none" /></g><g
         transform="translate(375.9102,562.321)"
         id="g166"><path
           d="m 0,0 19.479,0 c 0.111,-1.555 0.154,-2.58 0.154,-3.309 0,-8.525 -3.932,-14.264 -10.778,-18.691 -5.646,-3.648 -11.427,-3.556 -11.427,-3.556 3.676,3.639 6.553,8.752 6.253,14.491 C 3.417,-5.964 1.473,-3.451 0,0"
           id="path168"
           style="fill:#ffffff;fill-opacity:1;fill-rule:nonzero;stroke:none" /></g><g
         transform="translate(373.4331,586)"
         id="g170"><path
           d="m 0,0 c -1.287,-0.791 -8.632,-5.674 -6.275,-16.974 1.289,-6.19 8.724,-13.274 8.422,-21.178 -0.215,-5.687 -3.408,-9.885 -4.269,-11.055 0,0 -1.768,0.071 -3.423,0.502 1.067,1.688 2.565,5.182 2.872,8.203 1.058,10.359 -9.243,14.845 -8.796,25.403 C -11.155,-7.662 -7.015,-2.398 0,0"
           id="path172"
           style="fill:#ffffff;fill-opacity:1;fill-rule:nonzero;stroke:none" /></g></g><g
       transform="matrix(0.96654864,0,0,0.96654864,13.294848,17.515402)"
       id="g4126"><path
         d="m 350.36,512.771 44.854,0 0,-2.386 -44.854,0 0,2.386 z"
         id="path124"
         style="fill:#ffffff;fill-opacity:1;fill-rule:nonzero;stroke:none" /><g
         id="g4106"><g
           id="g100"><g
             clip-path="url(#clipPath104)"
             id="g102"><g
               transform="translate(317.8227,525.7744)"
               id="g108"><path
                 d="m 0,0 c 2.143,1.87 3.026,2.42 3.849,2.42 0.599,0 1.45,-0.292 1.986,-0.679 L 4.983,-0.451 4.733,-0.322 C 3.564,0.325 2.997,0.55 2.366,0.55 1.64,0.55 1.011,0.193 0,-0.806 l 0,-5.707 c 0,-1.806 0.285,-2.198 1.545,-2.198 l 0.318,0 0,-0.546 -5.931,0 0,0.546 0.284,0 c 1.293,0 1.578,0.392 1.578,2.198 l 0,5.288 0,0.873 c 0,1.577 -0.316,1.9 -1.766,1.9 l -0.442,0 0,0.55 L 0,2.45 0,0 z"
                 id="path110"
                 style="fill:#ffffff;fill-opacity:1;fill-rule:nonzero;stroke:none" /></g><g
               transform="translate(359.9219,530.9381)"
               id="g112"><path
                 d="m 0,0 -0.535,0 -0.033,0.258 c -0.348,1.451 -0.724,2.19 -1.514,2.805 -0.692,0.548 -1.545,0.87 -2.459,0.87 -1.893,0 -3.249,-1.257 -3.249,-2.934 0,-0.905 0.441,-1.905 1.167,-2.616 0.443,-0.419 0.945,-0.806 1.512,-1.191 0.413,-0.258 1.107,-0.709 2.082,-1.322 1.455,-0.937 2.176,-1.517 2.809,-2.291 0.788,-0.968 1.199,-2.032 1.199,-3.193 0,-2.906 -2.302,-5.258 -5.142,-5.258 -0.977,0 -1.515,0.13 -2.994,0.613 -0.725,0.261 -1.01,0.353 -1.136,0.353 -0.315,0 -0.539,-0.224 -0.697,-0.705 l -0.535,0 0,4.997 0.535,0 0.036,-0.354 c 0.249,-1.746 0.596,-2.421 1.635,-3.227 0.759,-0.643 1.706,-0.97 2.682,-0.97 2.179,0 3.628,1.357 3.628,3.358 0,1.129 -0.408,1.903 -1.513,2.806 -0.662,0.58 -1.357,1.096 -2.115,1.58 -1.164,0.774 -1.923,1.257 -2.331,1.547 -0.441,0.323 -0.885,0.744 -1.294,1.226 -0.789,1.002 -1.168,2.096 -1.168,3.386 0,2.842 2.021,4.776 4.92,4.776 0.915,0 1.453,-0.097 2.523,-0.451 0.631,-0.226 0.855,-0.258 1.04,-0.258 0.253,0 0.347,0.096 0.442,0.387 0,0.032 0.033,0.064 0.033,0.129 L 0,4.321 0,0 z"
                 id="path114"
                 style="fill:#ffffff;fill-opacity:1;fill-rule:nonzero;stroke:none" /></g><g
               transform="translate(349.3125,518.5493)"
               id="g116"><path
                 d="m 0,0 c -0.03,-1.354 -0.946,-2.321 -2.205,-2.321 -0.917,0 -1.484,0.451 -1.894,1.547 -1.103,-1.163 -1.797,-1.547 -2.965,-1.547 -1.768,0 -3.216,1.354 -3.216,2.996 0,1.646 1.008,2.552 3.721,3.323 1.641,0.487 1.987,0.583 2.46,0.873 l 0,0.838 c 0,1.645 -1.009,2.806 -2.491,2.806 -1.292,0 -2.242,-0.739 -2.869,-2.225 L -9.554,6.032 -10.09,6.193 c 0.471,2.096 2.113,3.453 4.13,3.453 1.482,0 2.838,-0.712 3.501,-1.838 0.409,-0.712 0.535,-1.293 0.535,-2.937 l 0,-4.256 c 0,-1.327 0.126,-1.709 0.601,-1.709 0.377,0 0.629,0.35 0.786,1.094 L 0,0 z M -3.869,4.162 C -4.344,3.936 -4.467,3.869 -5.161,3.646 -7.273,2.937 -7.874,2.354 -7.874,0.933 c 0,-1.193 0.788,-2.159 1.734,-2.159 0.882,0 1.702,0.514 2.271,1.449 l 0,3.939 z"
                 id="path118"
                 style="fill:#ffffff;fill-opacity:1;fill-rule:nonzero;stroke:none" /></g><g
               transform="translate(334.8838,525.1941)"
               id="g120"><path
                 d="m 0,0 0,-5.643 0,-0.94 c 0,-1.161 -0.41,-1.579 -1.546,-1.579 l -0.568,0 0,-0.549 6.119,0 0,0.549 C 2.334,-8.13 2.112,-7.872 2.112,-5.97 l 0,9.088 -2.513,-0.248 -3.551,0 c -0.567,0 -0.852,0 -1.577,0.066 -0.505,0.03 -0.947,0.03 -1.325,0.03 -2.745,0 -4.731,-1.934 -4.731,-4.611 0,-2.261 1.231,-3.807 3.534,-4.422 l 0,-0.064 c -2.556,-0.968 -3.499,-1.838 -3.499,-3.225 0,-1 0.88,-1.773 2.393,-2.128 l 0,-0.067 c -2.87,-1.386 -3.593,-2.128 -3.593,-3.581 0,-2.096 2.205,-3.482 5.517,-3.482 3.818,0 6.844,2.096 6.844,4.744 0,1.675 -1.261,2.741 -3.783,3.257 l -2.588,0.516 c -2.587,0.516 -3.09,0.806 -3.09,1.644 0,0.806 1.388,1.774 3.155,2.195 2.679,0.063 4.635,2.001 4.635,4.613 0,1.127 -0.442,2.289 -1.261,3.257 0,0 0.383,0.346 1.207,0.387 l 0.632,0 C -0.443,1.999 0,1.547 0,0.546 L 0,0.483 0,0 z m -7.571,-11.873 2.145,-0.454 c 3.218,-0.707 4.101,-1.223 4.101,-2.515 0,-1.516 -1.735,-2.579 -4.194,-2.579 -3.188,0 -5.614,1.257 -5.614,2.904 0,1.163 1.134,2.131 3.248,2.711 l 0.314,-0.067 z m 0.946,6.23 c -1.639,0 -2.742,1.64 -2.742,4.093 0,2.356 1.103,3.936 2.774,3.936 1.64,0 2.746,-1.58 2.746,-3.902 0,-2.519 -1.106,-4.127 -2.778,-4.127"
                 id="path122"
                 style="fill:#ffffff;fill-opacity:1;fill-rule:nonzero;stroke:none" /></g></g></g><g
           transform="translate(378.2384,518.5493)"
           id="g134"><path
             d="m 0,0 c -0.158,-0.744 -0.411,-1.094 -0.79,-1.094 -0.474,0 -0.599,0.382 -0.599,1.709 l 0,4.256 c 0,1.644 -0.129,2.225 -0.535,2.937 -0.664,1.126 -2.021,1.838 -3.503,1.838 -2.018,0 -3.656,-1.357 -4.131,-3.453 L -9.02,6.032 -8.926,6.29 c 0.63,1.486 1.575,2.225 2.867,2.225 1.484,0 2.493,-1.161 2.493,-2.806 l 0,-0.838 C -4.04,4.581 -4.386,4.485 -6.024,3.998 -8.737,3.227 -9.748,2.321 -9.748,0.675 c 0,-0.3 0.063,-0.583 0.153,-0.857 -0.645,-0.679 -1.193,-0.912 -1.969,-0.912 -1.547,0 -2.021,0.741 -2.021,3.192 l 0,6.481 3.882,0 0,0.744 -3.882,0 0,3.936 -0.566,0 c -0.945,-1.969 -2.081,-3.261 -3.688,-4.164 l 0,-0.516 2.079,0 0,-5.997 0,-1.617 c 0,-1.902 1.357,-3.286 3.218,-3.286 1.17,0 2.259,0.534 3.191,1.591 0.547,-0.94 1.603,-1.591 2.818,-1.591 1.171,0 1.864,0.384 2.967,1.547 0.41,-1.096 0.978,-1.547 1.892,-1.547 1.263,0 2.176,0.967 2.208,2.321 L 0,0 z m -3.335,0.223 c -0.567,-0.935 -1.39,-1.449 -2.274,-1.449 -0.943,0 -1.734,0.966 -1.734,2.159 0,1.421 0.603,2.004 2.714,2.713 0.693,0.223 0.821,0.29 1.294,0.516 l 0,-3.939 z"
             id="path136"
             style="fill:#ffffff;fill-opacity:1;fill-rule:nonzero;stroke:none" /></g><g
           transform="translate(394.4092,518.5375)"
           id="g174"><path
             d="m 0,0 c -1.11,-1.128 -2.075,-1.635 -3.116,-1.635 -1.199,0 -2.492,0.806 -3.315,2.066 -0.819,1.195 -1.068,2.225 -1.163,4.516 l 8.231,0 0,0.387 c 0.028,2.257 -2.272,4.323 -4.794,4.323 -3.157,0 -5.649,-2.678 -5.649,-6.096 0,-1.41 0.437,-2.649 1.186,-3.626 -0.69,-0.764 -1.254,-1.017 -2.071,-1.017 -1.544,0 -2.015,0.741 -2.015,3.192 l 0,6.481 3.877,0 0,0.744 -3.877,0 0,3.936 -0.57,0 c -0.945,-1.969 -2.083,-3.261 -3.69,-4.164 l 0,-0.516 2.083,0 0,-5.997 0,-1.617 c 0,-1.903 1.356,-3.287 3.217,-3.287 1.257,0 2.422,0.611 3.398,1.831 1.078,-1.147 2.645,-1.831 4.49,-1.831 1.557,0 2.694,0.412 3.778,1.458 L 0,0 z m -4.472,9.045 c 1.89,0 2.995,-1.292 2.995,-3.549 l -6.055,0 c 0.282,2.418 1.292,3.549 3.06,3.549"
             id="path176"
             style="fill:#ffffff;fill-opacity:1;fill-rule:nonzero;stroke:none" /></g><g
           transform="translate(300.7432,518.7542)"
           id="g178"><path
             d="m 0,0 c -1.201,-1.278 -2.216,-1.851 -3.325,-1.851 -1.199,0 -2.492,0.806 -3.312,2.066 -0.821,1.195 -1.072,2.224 -1.167,4.516 l 8.231,0 0,0.386 c 0.032,2.258 -2.27,4.324 -4.794,4.324 -2.528,0 -4.63,-1.725 -5.363,-4.171 l -7.163,0 0,-0.581 0.694,0 c 1.514,0 1.989,-0.677 1.989,-2.966 l 0,-1.05 c 0,-2 -0.728,-2.612 -3.064,-2.612 -4.319,0 -7.503,3.528 -7.503,8.95 0,4.998 2.713,8.485 6.59,8.485 1.545,0 2.956,-0.647 4.124,-1.714 0.976,-0.87 1.45,-1.805 1.828,-3.353 l 0.472,0 -0.156,5.451 -0.536,0 c -0.221,-0.453 -0.476,-0.614 -1.009,-0.614 -0.096,0 -0.189,0 -0.284,0.032 -0.156,0 -0.348,0.035 -0.505,0.099 -0.158,0.03 -0.472,0.129 -0.947,0.257 -1.293,0.353 -1.977,0.514 -2.953,0.514 -5.236,0 -9.304,-4.482 -9.304,-10.256 0,-5.58 4.098,-8.726 10.501,-8.726 1.83,0 3.942,0.259 5.141,0.585 l 0,3.823 c 0,2.377 0.44,3.09 1.94,3.095 -0.087,-0.433 -0.136,-0.884 -0.136,-1.345 0,-3.42 2.523,-5.87 6.023,-5.87 1.657,0 2.84,0.465 3.988,1.669 L 0,0 z m -4.453,8.828 c 1.895,0 2.997,-1.292 2.997,-3.549 l -6.056,0 c 0.284,2.418 1.294,3.549 3.059,3.549"
             id="path180"
             style="fill:#ffffff;fill-opacity:1;fill-rule:nonzero;stroke:none" /></g><g
           transform="translate(314.0453,522.2593)"
           id="g182"><path
             d="m 0,0 c 0,-3.453 -2.62,-6.031 -6.119,-6.031 -3.501,0 -6.12,2.578 -6.12,6.031 0,3.386 2.619,6.033 5.994,6.033 C -2.743,6.033 0,3.386 0,0 m -9.673,0.097 c 0,-3.452 1.451,-5.518 3.814,-5.518 2.335,0 3.756,2.097 3.756,5.486 0,3.388 -1.388,5.352 -3.849,5.352 -2.302,0 -3.721,-2.064 -3.721,-5.32"
             id="path184"
             style="fill:#ffffff;fill-opacity:1;fill-rule:nonzero;stroke:none" /></g></g></g><g
       transform="matrix(0.96654864,0,0,0.96654864,107.63,40.712569)"
       id="g4164"><g
         transform="translate(353.449,494.6537)"
         id="g186"><path
           d="m 0,0 c -1.102,-1.115 -2.061,-1.614 -3.099,-1.614 -1.198,0 -2.49,0.808 -3.312,2.065 -0.817,1.194 -1.07,2.225 -1.165,4.517 l 8.232,0 0,0.389 c 0.031,2.255 -2.271,4.321 -4.798,4.321 -3.151,0 -5.642,-2.676 -5.642,-6.099 0,-3.417 2.524,-5.868 6.024,-5.868 1.548,0 2.68,0.405 3.76,1.439 L 0,0 z m -4.454,9.065 c 1.893,0 2.996,-1.291 2.996,-3.549 l -6.055,0 c 0.285,2.421 1.294,3.549 3.059,3.549"
           id="path188"
           style="fill:#ffffff;fill-opacity:1;fill-rule:nonzero;stroke:none" /></g><g
         id="g4148"><g
           transform="translate(331.362,495.3952)"
           id="g138"><path
             d="m 0,0 0,8.937 -4.225,-0.419 0,-0.549 0.629,0 c 1.042,0 1.483,-0.454 1.483,-1.451 l 0,-0.069 0,-0.481 0,-5.645 0,-0.936 c 0,-1.16 -0.411,-1.582 -1.546,-1.582 l -0.268,0 c -1.261,0 -1.546,0.39 -1.546,2.195 l 0,4.68 c 0,2.644 -1.481,4.257 -3.814,4.257 -1.421,0 -2.713,-0.71 -4.007,-2.225 l 0,2.256 -4.038,-0.354 0,-0.548 0.318,0 c 1.262,-0.034 1.607,-0.39 1.607,-1.676 l 0,-1.069 0,-5.321 c 0,-1.805 -0.314,-2.195 -1.575,-2.195 l -0.198,0 c -1.291,0 -1.829,0.841 -1.829,2.937 l 0,0.58 0,10.355 0,0.58 c 0,2.096 0.538,2.935 1.829,2.935 l 0.222,0 0,0.553 -6.402,0 0,-0.553 0.125,0 c 1.294,0 1.827,-0.839 1.827,-2.935 l 0,-0.58 0,-10.548 c -1.258,-1.999 -3.09,-3.063 -5.203,-3.063 -1.639,0 -3.089,0.712 -3.813,1.87 -0.506,0.806 -0.728,2.031 -0.728,3.775 l 0,7.966 0,0.58 c 0,2.096 0.504,2.935 1.83,2.935 l 0.222,0 0,0.553 -6.531,0 0,-0.553 0.255,0 c 1.292,0 1.797,-0.839 1.797,-2.935 l 0,-0.58 0,-6.774 0,-1.517 c 0,-3.966 2.366,-6.449 6.15,-6.449 2.397,0 4.288,0.935 6.021,2.902 l 0,-2.579 4.109,0 0.341,0 5.525,0 0,0.545 -0.315,0 c -1.261,0 -1.546,0.39 -1.546,2.195 l 0,5.643 c 1.074,1.553 2.051,2.197 3.155,2.197 1.735,0 2.459,-0.937 2.459,-3.224 L -7.68,0 c 0,-1.805 -0.283,-2.195 -1.577,-2.195 l -0.315,0 0,-0.545 5.347,0 0.615,0 5.504,0 0,0.545 C 0.223,-2.161 0,-1.903 0,0"
             id="path140"
             style="fill:#ffffff;fill-opacity:1;fill-rule:nonzero;stroke:none" /></g><g
           transform="translate(344.6337,503.4614)"
           id="g142"><path
             d="m 0,0 c -1.262,-0.097 -1.705,-0.42 -2.146,-1.581 l -0.188,-0.55 -3.408,-8.933 -0.504,0 -3.626,9 c -0.757,1.871 -0.915,2.029 -2.335,2.064 l 0,0.548 5.426,0 0,-0.548 c -0.726,-0.067 -1.104,-0.39 -1.104,-0.937 0,-0.291 0.062,-0.514 0.347,-1.29 l 2.365,-5.807 2.144,5.712 c 0.221,0.612 0.347,1.064 0.347,1.288 0,0.644 -0.314,0.905 -1.136,0.999 C -3.88,-0.035 -3.975,0 -4.102,0 l 0,0.548 L 0,0.548 0,0 z"
             id="path144"
             style="fill:#ffffff;fill-opacity:1;fill-rule:nonzero;stroke:none" /></g><g
           transform="translate(370.6885,500.8813)"
           id="g146"><path
             d="M 0,0 C -0.034,0.097 -0.065,0.157 -0.095,0.226 -0.693,2.19 -1.453,2.87 -2.869,2.87 c -1.106,0 -1.862,-0.613 -1.862,-1.548 0,-1.002 0.568,-1.582 2.238,-2.321 1.64,-0.746 2.05,-0.972 2.555,-1.456 0.692,-0.675 1.102,-1.61 1.102,-2.58 0,-1.902 -1.607,-3.482 -3.562,-3.482 -0.599,0 -1.354,0.193 -2.02,0.516 -0.376,0.194 -0.63,0.258 -0.818,0.258 -0.315,0 -0.566,-0.193 -0.663,-0.551 0,-0.03 -0.03,-0.129 -0.061,-0.223 l -0.535,0 0,3.902 0.535,0 c 0.566,-2.161 1.797,-3.321 3.594,-3.321 1.102,0 1.955,0.838 1.955,1.964 0,1.227 -0.661,1.808 -3.249,2.937 -1.828,0.806 -2.68,1.805 -2.68,3.226 0,1.776 1.546,3.26 3.406,3.26 0.379,0 0.758,-0.065 1.104,-0.162 l 0.758,-0.258 c 0.156,-0.032 0.284,-0.066 0.441,-0.066 0.282,0 0.472,0.129 0.631,0.451 l 0.504,0 L 0.504,0 0,0 z"
             id="path148"
             style="fill:#ffffff;fill-opacity:1;fill-rule:nonzero;stroke:none" /></g><g
           transform="translate(376.6624,495.3952)"
           id="g150"><path
             d="m 0,0 c 0,-1.903 0.223,-2.161 1.895,-2.195 l 0,-0.545 -6.122,0 0,0.545 0.57,0 c 1.135,0 1.546,0.422 1.546,1.582 l 0,0.936 0,5.645 0,0.481 0,0.069 c 0,0.997 -0.444,1.451 -1.481,1.451 l -0.635,0 0,0.549 L 0,8.937 0,0 z"
             id="path152"
             style="fill:#ffffff;fill-opacity:1;fill-rule:nonzero;stroke:none" /></g><g
           transform="translate(392.4234,504.0095)"
           id="g154"><path
             d="m 0,0 0,-0.548 c 0.852,-0.067 1.134,-0.355 1.134,-1.067 0,-0.288 -0.063,-0.61 -0.219,-1.096 l -1.986,-6 -2.493,5.869 c -0.283,0.746 -0.377,1.004 -0.377,1.389 0,0.55 0.252,0.808 0.947,0.905 l 0,0.548 -3.399,0 -1.931,0 -1.947,0 0,3.936 -0.568,0 c -0.946,-1.97 -2.083,-3.259 -3.689,-4.162 l 0,-0.516 2.079,0 0,-6.002 0,-1.612 c 0,-1.903 1.358,-3.289 3.219,-3.289 1.26,0 2.426,0.613 3.404,1.838 l -0.347,0.419 c -0.695,-0.774 -1.261,-1.031 -2.082,-1.031 -1.542,0 -2.016,0.741 -2.016,3.191 l 0,6.486 1.947,0 0,-0.009 c 1.262,-0.032 1.639,-0.09 2.239,-1.378 l 0.221,-0.517 3.782,-9.031 -1.356,-4.133 c -0.63,-1.934 -1.515,-2.804 -2.901,-2.804 -0.377,0 -0.63,0.064 -1.074,0.257 l -0.725,-2.127 c 0.602,-0.259 0.854,-0.323 1.295,-0.323 0.849,0 1.608,0.422 2.271,1.225 0.788,0.968 1.042,1.548 1.891,4.098 l 4.069,12.289 c 0.629,1.905 1.355,2.647 2.554,2.647 L 3.942,0 0,0 z"
             id="path156"
             style="fill:#ffffff;fill-opacity:1;fill-rule:nonzero;stroke:none" /></g><g
           transform="translate(358.402,501.9134)"
           id="g190"><path
             d="M 0,0 C 2.147,1.87 3.029,2.419 3.849,2.419 4.448,2.419 5.3,2.128 5.835,1.741 L 4.986,-0.454 4.733,-0.325 C 3.564,0.32 2.996,0.549 2.367,0.549 1.642,0.549 1.01,0.194 0,-0.806 l 0,-5.712 c 0,-1.805 0.285,-2.195 1.548,-2.195 l 0.315,0 0,-0.546 -5.932,0 0,0.546 0.286,0 c 1.294,0 1.577,0.39 1.577,2.195 l 0,5.291 0,0.87 c 0,1.582 -0.315,1.905 -1.765,1.905 l -0.442,0 0,0.548 L 0,2.45 0,0 z"
             id="path192"
             style="fill:#ffffff;fill-opacity:1;fill-rule:nonzero;stroke:none" /></g><g
           transform="translate(395.1196,492.7606)"
           id="g194"><path
             d="m 0,0 c -0.923,0 -1.665,0.765 -1.665,1.709 0,0.944 0.742,1.702 1.665,1.702 0.923,0 1.671,-0.758 1.671,-1.702 C 1.671,0.765 0.923,0 0,0 m 0,3.132 c -0.769,0 -1.389,-0.635 -1.389,-1.423 0,-0.79 0.62,-1.428 1.389,-1.428 0.77,0 1.396,0.638 1.396,1.428 C 1.396,2.497 0.77,3.132 0,3.132 m -0.726,-0.534 0.79,0 c 0.445,0 0.595,-0.281 0.595,-0.479 0,-0.3 -0.208,-0.511 -0.511,-0.53 l 0,-0.009 C 0.301,1.522 0.415,1.363 0.565,1.122 L 0.78,0.765 0.43,0.765 0.269,1.05 C 0.04,1.463 -0.045,1.538 -0.262,1.538 l -0.174,0 0,-0.773 -0.29,0 0,1.833 z m 0.705,-0.802 c 0.222,0 0.369,0.088 0.369,0.277 0,0.166 -0.128,0.276 -0.319,0.276 l -0.465,0 0,-0.553 0.415,0 z"
             id="path196"
             style="fill:#ffffff;fill-opacity:1;fill-rule:nonzero;stroke:none" /></g></g></g></g></svg>